<svg width="32" height="32" viewBox="0 0 32 32" fill="none" xmlns="http://www.w3.org/2000/svg">
<path fill-rule="evenodd" clip-rule="evenodd" d="M16 0C24.8372 0 32 7.16282 32 16C32 24.8372 24.8372 32 16 32C7.16282 32 0 24.8372 0 16C0 7.16282 7.16282 0 16 0Z" fill="white"/>
<path d="M16.125 4.65776C16.404 4.64445 16.9437 4.63017 17.2065 4.71146C17.3314 4.99326 17.2954 4.97148 17.6044 5.05055C17.7205 5.07294 17.7706 5.08823 17.8824 5.12764C18.0702 5.40659 18.4257 5.42906 18.5942 5.59555C18.6246 5.63657 18.6913 5.69641 18.7368 5.71951C18.9499 5.90814 19.0597 5.83524 19.1988 6.06276C19.2517 6.14928 19.524 6.25953 19.6298 6.30142C19.7485 6.49421 19.8843 6.5463 20.0966 6.63746C20.2304 6.89874 20.6076 7.23177 20.8795 7.3529C21.023 7.59688 21.0601 7.66383 21.3273 7.792C21.3568 7.86463 21.4062 7.99881 21.4495 8.06035C21.5424 8.17614 21.6111 8.17178 21.6643 8.31567C21.7513 8.54127 21.9525 8.73845 22.0834 8.94733C22.3386 9.35478 22.5288 9.79449 22.7471 10.2205C22.8936 10.5061 22.9275 10.8473 22.9661 11.1605C22.9546 11.3532 22.9138 12.7371 22.9616 12.884C22.9632 12.8005 22.9617 12.5959 22.9735 12.5223L22.9997 12.5389C23.0222 12.6526 23.0154 12.7688 23.0136 12.8847L23.0254 12.8847C23.0482 12.7261 23.0462 12.5771 23.1645 12.4671C23.2103 12.4531 23.213 12.4506 23.2631 12.4484C23.2593 12.8814 23.2869 13.6617 23.3484 14.0885L23.3473 14.212C23.321 14.465 23.3167 15.93 23.4623 16.1024C23.5653 16.2244 23.6266 16.0104 23.701 16.2915C23.7085 16.3882 23.726 16.5464 23.7245 16.6387C23.7217 16.807 23.7229 16.9753 23.728 17.1435C23.7235 17.2907 23.7504 17.7439 23.7411 17.8291L23.7414 17.9962C23.7461 18.1527 23.7179 18.3791 23.9028 18.443C23.9626 18.4093 23.9874 18.3865 24.0542 18.4326C24.0763 18.362 24.0709 18.0602 24.0899 17.9472C24.0873 18.0448 24.1136 18.3393 24.1506 18.4254C24.175 18.5559 24.1856 18.7893 24.2164 18.8899L24.2321 18.9675C24.3126 19.3076 24.3763 19.4968 24.5037 19.8175C24.545 20.0468 24.5845 20.2847 24.6342 20.5117C24.634 20.5877 24.6338 20.6596 24.6204 20.7349C24.5601 21.0726 24.5886 21.4177 24.5799 21.756C24.5742 21.9795 24.6518 22.0958 24.6641 22.2655C24.4819 22.6882 24.4671 22.6297 24.2265 22.9798C24.0108 23.0612 23.8537 23.1415 23.6639 23.2707C23.5022 23.3808 23.317 23.4633 23.1637 23.584C23.0706 23.6634 23.0827 23.7609 22.9694 23.8276C22.8769 23.8839 22.6884 23.908 22.6056 23.9588C22.3047 24.1432 21.982 24.2563 21.6748 24.4271C20.809 24.9086 19.8371 25.2029 18.9889 25.7267C18.9073 25.7772 18.8065 25.8035 18.7227 25.853C18.4771 25.9653 18.4164 26.1177 18.2664 26.1492C18.0428 26.1882 17.9863 26.2402 17.8098 26.2875C17.7011 26.3386 17.6678 26.3767 17.5914 26.4685L17.2832 26.5539C17.0712 26.6197 16.8428 26.7504 16.6812 26.8968C16.3773 26.9544 15.3236 27.107 15.1231 26.8752C15.0691 26.8281 14.9519 26.7539 14.8894 26.7138C14.7986 26.6665 14.7079 26.6162 14.6177 26.5679C14.2291 26.3587 13.8069 26.2081 13.4033 26.0233L13.2361 25.9467C12.9941 25.7817 12.2687 25.5006 11.9799 25.3716C11.8228 25.3119 11.6601 25.156 11.5131 25.094C10.8133 24.7992 10.1617 24.4313 9.53984 24.005C9.42162 23.9158 9.22023 23.8405 9.1091 23.7516C8.87495 23.5752 8.63229 23.343 8.37414 23.1989C7.71873 22.8329 6.71376 22.2436 6.54185 21.469C6.53165 21.3058 6.56716 21.1451 6.58345 20.9808C6.60066 20.8069 6.60262 20.6537 6.60264 20.4792C6.61482 20.3094 6.62354 20.1393 6.62877 19.9691C6.65736 19.7181 6.67294 19.4365 6.72287 19.1922C6.86115 18.5153 7.02576 18.0872 7.07723 17.3957C7.13268 17.3108 7.13462 17.2667 7.15263 17.1689L7.17949 17.1609C7.25004 17.2423 7.29959 17.2425 7.38335 17.1852C7.49112 17.0008 7.44085 16.5205 7.42959 16.2902L7.48833 15.7041C7.56019 15.6355 7.55491 15.6434 7.57748 15.5479C7.63075 15.3227 7.62165 15.4142 7.78088 15.349L7.82869 15.372L7.81634 15.3498C7.83584 15.4251 7.80599 15.4312 7.78586 15.5089C7.7994 15.4566 7.80064 15.5762 7.79989 15.5853C7.74911 15.588 7.68269 15.5455 7.63436 15.5208L7.6105 15.5538C7.61426 15.5946 7.61283 15.5808 7.63425 15.6198C7.70243 15.6531 7.76601 15.663 7.83377 15.6239C7.9072 15.4606 7.89474 14.8599 7.87495 14.6693C7.92715 14.0083 8.3748 12.9928 8.63102 12.3539C8.73417 12.0967 8.85932 11.6424 9.01806 11.4196L9.03878 11.4569C9.13292 11.3523 9.08918 11.1679 9.1315 11.1011C9.29099 10.8495 9.47927 10.5806 9.55364 10.2917C9.56671 10.241 9.56223 10.1668 9.60896 10.1383C9.66234 10.1598 9.85634 10.1472 9.86958 10.1285C9.90128 10.0836 9.89943 9.88359 9.89899 9.82888C9.87944 9.59656 9.97492 9.27648 10.1773 9.12809C10.3792 8.97999 10.3374 8.70288 10.4136 8.63226C10.6773 8.38783 10.7703 8.10384 10.9682 7.82837L11.0857 7.82404C11.217 8.27473 10.9613 8.09089 10.818 8.19909L10.8227 8.22809C10.8702 8.24611 11.0357 8.23749 11.0971 8.23646C11.2334 8.1508 11.1002 7.94121 11.171 7.82426C11.2328 7.80778 11.2952 7.79307 11.3579 7.78017L11.3696 7.75172L11.3474 7.73701C11.2759 7.76865 11.2376 7.77419 11.1719 7.73353C11.1618 7.68601 11.1956 7.54153 11.2223 7.50917C11.5369 7.12655 11.8496 6.727 12.1971 6.3722L12.1865 6.33749C12.2591 6.22278 12.6014 5.95236 12.7217 5.87905C12.9503 5.7398 13.0534 5.75778 13.1858 5.52115C13.2854 5.49624 13.3756 5.47242 13.4777 5.45702C13.6512 5.44556 13.8231 5.50924 13.9799 5.45463C14.0213 5.39998 14.0056 5.38198 14.0043 5.30082L14.0364 5.27559L14.1623 5.29569L14.167 5.33633C14.2344 5.34656 14.3571 5.26607 14.4245 5.22832C14.4291 5.19233 14.418 5.14407 14.412 5.1062L15.0853 5.06179C15.1836 5.06533 15.2772 5.07033 15.3757 5.06373C15.5935 5.06803 15.7119 5.07611 15.923 5.03079L15.925 5.00857C15.8671 4.97244 15.7867 4.98878 15.7001 4.98097L15.6764 4.94084C15.7186 4.92086 15.7805 4.9317 15.8332 4.93422C16.0476 4.83199 15.8118 4.73426 16.125 4.65776Z" fill="#28292A"/>
<path d="M13.3409 15.2292C13.4635 15.2216 13.6276 15.2196 13.7456 15.2004C14.0321 15.1537 13.9517 15.4111 13.9832 15.6075L13.905 15.6133C13.9669 15.6725 13.9549 15.7186 13.9551 15.8139C13.9551 15.8756 13.9548 15.9373 13.9542 15.999L14.399 16.0019L14.4131 15.9984C14.3931 15.9271 14.3975 15.6971 14.3967 15.6113L14.8089 15.609C14.8104 15.7259 14.8083 15.8642 14.815 15.9791C14.9176 15.9711 15.0819 15.9694 15.1795 15.9975L16.7962 15.9985C16.926 15.9632 17.034 15.9683 17.1681 15.9663C17.1718 15.8728 17.165 15.7076 17.2112 15.6328C17.3856 15.6019 17.7323 15.6157 17.9237 15.6105C18.2851 15.6008 18.6403 15.5812 19.002 15.5833C19.1606 15.5842 19.5153 15.595 19.6443 15.5725L19.6584 15.5158L19.7022 15.5903C19.7641 15.6239 19.9708 15.6127 20.0549 15.6127L20.4536 15.6184L20.4691 15.6143L20.8971 15.6131C20.8993 15.7288 20.8973 15.8894 20.9084 16.0012L21.3034 16C21.3011 16.1242 21.2949 16.2661 21.2987 16.3888C21.1974 16.3908 20.9821 16.4069 20.9009 16.3712L20.8942 16.3822L20.4571 16.3781C20.3263 16.3735 20.1879 16.3766 20.0565 16.3774L20.0524 16.3967C20.0534 16.5207 20.0553 16.6436 20.0502 16.7677L20.0514 17.1558L19.6544 17.1579L19.6547 17.5859L19.6502 19.503L19.6489 19.8597L19.6537 19.892L19.6492 20.2843C19.5171 20.2826 19.3851 20.2831 19.2531 20.2856L19.2488 20.7146L19.2496 21.0807C19.1289 21.1011 18.9759 21.0938 18.851 21.0923L18.8461 21.4841C18.812 21.4881 18.5199 21.4822 18.4511 21.4831L18.4466 21.4953L18.4482 21.8674L18.4516 22.2557C18.317 22.2535 18.1832 22.2496 18.0488 22.2566L18.0464 22.635L18.046 23.0163C17.9157 23.0176 17.7771 23.0214 17.6475 23.0183L17.6484 23.4055C17.5381 23.4056 17.3023 23.3998 17.2022 23.4095L17.1874 23.405L16.8041 23.4027C16.8031 23.5436 16.7995 23.6927 16.8016 23.8329L16.3981 23.8369L16.2828 23.8347C16.2041 23.8295 16.0897 23.8323 16.008 23.8319C15.7498 23.835 15.4917 23.834 15.2336 23.8288L15.0557 23.8387L14.7984 23.8373L14.4125 23.8333C14.393 23.7511 14.3972 23.5079 14.3965 23.4096L13.9549 23.407C13.9514 23.2781 13.944 23.1507 13.9597 23.0226C13.978 22.9889 13.973 22.9875 13.9735 22.9471C14.0101 22.6839 13.9692 22.3299 13.959 22.0629C13.9515 21.8645 13.9552 21.6693 13.9578 21.471C13.933 21.2654 13.9843 20.8576 13.9584 20.7073L13.5533 20.7099C13.5532 20.8286 13.5492 20.974 13.5537 21.0904C13.4767 21.0916 13.2152 21.0911 13.1521 21.0997L13.1511 21.4952L13.1501 21.8567C13.065 21.8808 12.8606 21.8682 12.7622 21.8661L12.7439 21.8579L12.3509 21.867C12.3505 21.976 12.345 22.1449 12.3509 22.2502L11.951 22.2524L11.9477 21.879C11.8739 21.8567 11.6411 21.861 11.5514 21.8599L11.5463 21.4849C11.4318 21.4761 11.2694 21.4788 11.1512 21.4772L11.153 21.0924L11.1453 20.958C11.0793 20.7829 11.2286 20.4172 11.0757 20.2722C10.9387 20.232 10.8606 20.3683 10.7182 20.2869C10.665 20.1993 10.6394 19.7494 10.7043 19.6894C10.7113 19.5906 10.7075 19.4585 10.7077 19.357L10.7073 19.1048L10.7068 18.7349L10.7048 18.3127L10.7045 17.9606L10.7036 17.575L10.7024 16.7686L11.1333 16.7694C11.1499 16.7073 11.146 16.4661 11.1466 16.3886L11.5329 16.3838L11.5486 16.3872L11.9312 16.3836C11.9445 16.3136 11.9516 16.0826 11.955 16L11.9353 15.9919L11.9466 15.6166L11.9319 15.6123L11.5581 15.6143L11.5434 15.6101L11.5506 15.2239C11.6818 15.2245 11.8195 15.223 11.9501 15.2272C12.4085 15.2263 12.8839 15.2194 13.3409 15.2292Z" fill="#FBFBFB"/>
<path d="M15.6994 20.7131C16.004 20.6981 16.9819 20.739 17.2046 20.6934L17.2139 20.7066L17.6462 20.7108L17.6467 21.0912L18.0479 21.0938L18.0493 21.494C18.1659 21.4859 18.3351 21.4719 18.4465 21.4956L18.4481 21.8677L18.4515 22.2561C18.3169 22.2538 18.183 22.2499 18.0487 22.257L18.0463 22.6353L18.0459 23.0166C17.9155 23.018 17.777 23.0218 17.6474 23.0187L17.6483 23.4058C17.538 23.4059 17.3021 23.4002 17.2021 23.4098L17.1873 23.4053L16.804 23.403C16.803 23.544 16.7993 23.693 16.8015 23.8332L16.398 23.8373L16.2827 23.835C16.204 23.8298 16.0896 23.8326 16.0078 23.8322C15.7497 23.8354 15.4915 23.8343 15.2334 23.8291L15.0556 23.839L14.7983 23.8377L14.4124 23.8337C14.3929 23.7514 14.3971 23.5082 14.3964 23.4099L13.9548 23.4073C13.9512 23.2784 13.9439 23.151 13.9595 23.0229C13.9779 22.9892 13.9729 22.9879 13.9734 22.9475C14.01 22.6842 13.9691 22.3302 13.9589 22.0632C13.9514 21.8648 13.9551 21.6696 13.9577 21.4713C14.0861 21.4739 14.2631 21.4725 14.3874 21.4812C14.3888 21.2252 14.3923 20.9692 14.3979 20.7133C14.8317 20.7107 15.2656 20.7106 15.6994 20.7131Z" fill="#262729"/>
<path d="M14.3979 20.7129C14.8318 20.7103 15.2656 20.7103 15.6994 20.7128C15.814 20.7301 15.8805 20.7339 15.9969 20.7375L15.9921 21.4722C15.4378 21.4856 14.9427 21.4994 14.3875 21.4809C14.3888 21.2248 14.3923 20.9689 14.3979 20.7129Z" fill="#424143"/>
<path d="M18.0492 21.4939C18.1658 21.4859 18.335 21.4719 18.4464 21.4956L18.448 21.8677L18.4514 22.256C18.3168 22.2538 18.183 22.2498 18.0486 22.2569L18.0492 21.4939Z" fill="#727072"/>
<path d="M14.3965 23.4097L14.8198 23.4092C14.814 23.5077 14.7954 23.6616 14.8241 23.7509C14.9322 23.8415 15.0794 23.7693 15.2336 23.8289L15.0557 23.8388L14.7984 23.8375L14.4125 23.8335C14.393 23.7512 14.3972 23.508 14.3965 23.4097Z" fill="#353435"/>
<path d="M16.3919 23.4032L16.804 23.4028C16.803 23.5438 16.7994 23.6929 16.8015 23.8331L16.398 23.8371L16.2827 23.8349C16.3319 23.8182 16.3296 23.819 16.369 23.7858C16.4097 23.6703 16.3954 23.5274 16.3919 23.4032Z" fill="#353435"/>
<path d="M17.1982 23.0234L17.6474 23.0186L17.6483 23.4057C17.5379 23.4058 17.3021 23.4001 17.2021 23.4097L17.1873 23.4052C17.2046 23.3322 17.1983 23.1094 17.1982 23.0234Z" fill="#424143"/>
<path d="M17.2139 20.7065L17.6461 20.7108L17.6467 21.0911C17.5261 21.0992 17.3315 21.0955 17.2054 21.0968C17.2028 20.9808 17.1926 20.8168 17.2139 20.7065Z" fill="#171718"/>
<path d="M18.0463 22.6352L18.0459 23.0165C17.9156 23.0178 17.7771 23.0216 17.6475 23.0185L17.6486 22.6343L18.0463 22.6352Z" fill="#4D4C4D"/>
<path d="M11.1333 16.7694L11.1466 16.7723C11.1431 16.8939 11.1237 17.3911 11.1476 17.4893C11.1761 17.4452 11.1706 17.2583 11.1728 17.191C11.3642 17.1653 11.831 17.1646 11.961 17.1134C11.996 17.1863 11.9322 17.628 11.9272 17.7427C11.9089 18.1435 11.9069 18.5448 11.9212 18.9457C11.9264 19.0772 11.9611 19.6415 11.9504 19.7349C12.0053 19.8687 11.9607 20.1972 12.0027 20.2634C12.2512 20.3578 12.3949 19.9967 12.3826 20.6719L12.756 20.6913L12.7586 21.0891C12.8809 21.0864 13.0216 21.0867 13.1421 21.0764L13.1521 21.0997L13.1511 21.4952L13.1501 21.8567C13.065 21.8808 12.8606 21.8682 12.7622 21.8661L12.7439 21.8579L12.3509 21.867C12.3505 21.976 12.345 22.1449 12.3509 22.2502L11.951 22.2524L11.9477 21.879C11.8739 21.8567 11.6411 21.861 11.5514 21.8599L11.5463 21.4848C11.4318 21.4761 11.2694 21.4788 11.1512 21.4772L11.153 21.0924L11.1453 20.958C11.0793 20.7829 11.2286 20.4172 11.0757 20.2722C10.9387 20.232 10.8606 20.3683 10.7182 20.2869C10.665 20.1993 10.6394 19.7494 10.7043 19.6894C10.7113 19.5906 10.7075 19.4585 10.7077 19.357L10.7073 19.1048L10.7068 18.7348L10.7048 18.3126L10.7045 17.9606L10.7036 17.575L10.7024 16.7686L11.1333 16.7694Z" fill="#F0EFEF"/>
<path d="M11.9503 19.7354C12.0052 19.8692 11.9607 20.1977 12.0026 20.2638C12.2511 20.3582 12.3949 19.9971 12.3826 20.6723L12.7559 20.6917L12.7585 21.0895C12.8808 21.0869 13.0216 21.0872 13.142 21.0768L13.152 21.1001L13.151 21.4956L13.15 21.8571C13.065 21.8812 12.8606 21.8687 12.7622 21.8666L12.7439 21.8583L12.3509 21.8674L12.348 21.4907C12.3429 21.3775 12.3474 21.2212 12.3473 21.105L12.3532 21.0891L12.3547 20.7086C12.1985 20.7087 12.0968 20.7123 11.941 20.7273C11.963 20.3945 11.9147 20.075 11.9503 19.7354Z" fill="#E7E6E6"/>
<path d="M12.3531 21.0889L12.7486 21.0949C12.7461 21.1611 12.7305 21.4325 12.7465 21.4819C12.879 21.4818 13.0205 21.4775 13.1509 21.4954L13.1499 21.8569C13.0649 21.881 12.8605 21.8684 12.7621 21.8663L12.7438 21.8581L12.3508 21.8672L12.3479 21.4905C12.3428 21.3773 12.3473 21.221 12.3472 21.1047L12.3531 21.0889Z" fill="#DBDBDC"/>
<path d="M12.7465 21.482C12.8789 21.4819 13.0205 21.4776 13.1509 21.4954L13.1499 21.8569C13.0648 21.881 12.8604 21.8685 12.762 21.8664L12.7437 21.8581C12.741 21.7474 12.7316 21.5878 12.7465 21.482Z" fill="#CECECE"/>
<path d="M11.1333 16.7694L11.1466 16.7723C11.1431 16.8939 11.1237 17.3911 11.1476 17.4893C11.1478 17.6994 11.1599 18.0523 11.1436 18.2512C11.1437 18.3598 11.148 18.4953 11.1427 18.6015L11.1452 18.7495C10.9983 18.7439 10.8543 18.7424 10.7068 18.7348L10.7048 18.3126L10.7045 17.9606L10.7036 17.575L10.7024 16.7686L11.1333 16.7694Z" fill="#B7B7B7"/>
<path d="M10.7043 17.9609C10.8324 17.9831 10.9904 17.9707 11.1293 17.9848C11.1331 18.066 11.1347 18.1728 11.1435 18.2515C11.1436 18.3601 11.1479 18.4956 11.1425 18.6018L11.1451 18.7498C10.9982 18.7442 10.8541 18.7427 10.7067 18.7351L10.7046 18.3129L10.7043 17.9609Z" fill="#9E9D9E"/>
<path d="M10.7046 18.313C10.7793 18.37 11.0074 18.3558 11.1134 18.3569C11.1196 18.4196 11.1289 18.5461 11.1425 18.6019L11.1451 18.7498C10.9982 18.7442 10.8541 18.7428 10.7067 18.7352L10.7046 18.313Z" fill="#838283"/>
<path d="M10.7034 17.5752C10.8437 17.5844 10.9853 17.5841 11.126 17.5856C11.1254 17.7083 11.12 17.8648 11.1292 17.9846C10.9903 17.9706 10.8323 17.983 10.7043 17.9608L10.7034 17.5752Z" fill="#ACABAC"/>
<path d="M11.5523 21.0889L11.9482 21.0943C12.0242 21.0957 12.2823 21.0961 12.3472 21.1048C12.3473 21.221 12.3427 21.3774 12.3479 21.4905L12.3508 21.8673C12.3503 21.9762 12.3448 22.1452 12.3507 22.2505L11.9508 22.2527L11.9475 21.8793C11.8737 21.8569 11.6409 21.8613 11.5512 21.8601L11.5461 21.4851L11.5471 21.1034L11.5523 21.0889Z" fill="#C4C3C4"/>
<path d="M11.9482 21.0942C12.0242 21.0956 12.2823 21.096 12.3473 21.1047C12.3473 21.2209 12.3428 21.3773 12.348 21.4904C12.2155 21.4848 12.0791 21.4844 11.9463 21.4823L11.9482 21.0942Z" fill="#CECECE"/>
<path d="M11.9511 21.8681C12.0843 21.866 12.2175 21.8656 12.3507 21.8671C12.3503 21.9761 12.3448 22.145 12.3507 22.2503L11.9508 22.2525L11.9475 21.8791L11.9511 21.8681Z" fill="#B7B7B7"/>
<path d="M11.5461 21.4848L11.949 21.4824C11.9491 21.5897 11.9442 21.766 11.9511 21.868L11.9475 21.879C11.8737 21.8567 11.6409 21.861 11.5512 21.8599L11.5461 21.4848Z" fill="#9E9D9E"/>
<path d="M10.7077 19.3574C10.7244 19.474 10.7186 19.5184 10.8738 19.5209C10.9712 19.5226 11.0481 19.5141 11.1465 19.5237L11.1483 19.8994L11.1446 19.9154L11.1473 20.2958L11.1496 20.7171C11.1489 20.7765 11.1513 20.9048 11.1453 20.9584C11.0793 20.7833 11.2286 20.4176 11.0757 20.2726C10.9387 20.2324 10.8606 20.3687 10.7182 20.2873C10.665 20.1997 10.6394 19.7498 10.7043 19.6899C10.7113 19.591 10.7075 19.4589 10.7077 19.3574Z" fill="#353435"/>
<path d="M10.7075 19.3574C10.7242 19.474 10.7184 19.5184 10.8736 19.5209C10.971 19.5226 11.0478 19.5141 11.1463 19.5237L11.1481 19.8994L11.1443 19.9154C11.0526 19.8887 10.8178 19.8924 10.7128 19.8911C10.7122 19.8235 10.708 19.7573 10.7041 19.6899C10.7111 19.591 10.7073 19.4589 10.7075 19.3574Z" fill="#424143"/>
<path d="M10.7068 18.7349C10.8542 18.7425 10.9983 18.7439 11.1452 18.7495L11.1455 19.1473L11.1465 19.5232C11.048 19.5137 10.9712 19.5221 10.8738 19.5205C10.7186 19.518 10.7244 19.4735 10.7077 19.357L10.7073 19.1049L10.7068 18.7349Z" fill="#5F5F60"/>
<path d="M10.7068 18.7349C10.8542 18.7425 10.9983 18.7439 11.1452 18.7495L11.1455 19.1473C11.0548 19.1048 10.849 19.1413 10.7073 19.1049L10.7068 18.7349Z" fill="#727072"/>
<path d="M11.1496 20.7167C11.2845 20.7126 11.4133 20.7081 11.5484 20.7107C11.5492 20.8197 11.5456 20.9841 11.5525 21.0887L11.5472 21.1033L11.5463 21.485C11.4318 21.4762 11.2694 21.4789 11.1512 21.4773L11.153 21.0925L11.1453 20.9581C11.1513 20.9045 11.1489 20.7762 11.1496 20.7167Z" fill="#838283"/>
<path d="M11.1529 21.0928C11.2363 21.0935 11.4774 21.0904 11.5472 21.1035L11.5462 21.4852C11.4318 21.4765 11.2693 21.4792 11.1511 21.4776L11.1529 21.0928Z" fill="#4D4C4D"/>
<path d="M11.1472 20.2954C11.3033 20.2793 11.3924 20.2791 11.5482 20.2812L11.5483 20.7107C11.4131 20.7081 11.2843 20.7125 11.1495 20.7166L11.1472 20.2954Z" fill="#ACABAC"/>
<path d="M11.1483 19.8993C11.2583 19.8967 11.4389 19.8872 11.5434 19.8967L11.5483 20.2815C11.3925 20.2794 11.3034 20.2796 11.1473 20.2957L11.1445 19.9153L11.1483 19.8993Z" fill="#CECECE"/>
<path d="M11.1465 19.5234C11.2912 19.5174 11.3898 19.5128 11.5353 19.5236C11.5333 19.6587 11.5332 19.7605 11.5434 19.8965C11.4389 19.887 11.2583 19.8965 11.1483 19.8992L11.1465 19.5234Z" fill="#DBDBDC"/>
<path d="M17.1681 15.9667C17.1718 15.8731 17.165 15.708 17.2112 15.6332C17.3855 15.6022 17.7323 15.616 17.9237 15.6109C18.2851 15.6011 18.6403 15.5816 19.002 15.5836C19.1606 15.5845 19.5153 15.5954 19.6443 15.5728L19.6584 15.5161L19.7022 15.5906C19.7641 15.6243 19.9708 15.6131 20.0548 15.6131L20.4536 15.6187L20.4691 15.6147L20.8971 15.6134C20.8992 15.7292 20.8973 15.8897 20.9083 16.0016L21.3034 16.0004C21.3011 16.1246 21.2949 16.2664 21.2987 16.3892C21.1974 16.3911 20.9821 16.4073 20.9008 16.3716L20.8942 16.3826L20.4571 16.3784C20.3263 16.3739 20.1879 16.3769 20.0565 16.3777L20.0524 16.397C20.0534 16.5211 20.0553 16.644 20.0502 16.768L20.0514 17.1561L19.6544 17.1583L19.2556 17.1504L19.2487 16.7725L18.868 16.7718C17.7147 16.7579 16.5188 16.7699 15.3619 16.7706C15.0876 16.7366 15.2892 16.5738 15.2018 16.3881L14.8069 16.3854L14.415 16.3834C14.3965 16.2835 14.4002 16.109 14.399 16.0022L14.4131 15.9987C14.3931 15.9275 14.3975 15.6974 14.3967 15.6116L14.8089 15.6093C14.8104 15.7262 14.8083 15.8645 14.815 15.9795C14.9176 15.9715 15.0819 15.9697 15.1795 15.9979L16.7962 15.9989C16.926 15.9635 17.0339 15.9687 17.1681 15.9667Z" fill="#5F5F60"/>
<path d="M17.168 15.9667C17.1717 15.8731 17.1649 15.708 17.2111 15.6332C17.3855 15.6022 17.7323 15.616 17.9236 15.6109C18.285 15.6011 18.6402 15.5816 19.0019 15.5836C19.1605 15.5845 19.5153 15.5954 19.6443 15.5728L19.6583 15.5161L19.7022 15.5906C19.764 15.6243 19.9707 15.6131 20.0548 15.6131L20.4536 15.6187L20.469 15.6147L20.897 15.6134C20.8992 15.7292 20.8972 15.8897 20.9083 16.0016L21.3033 16.0004C21.301 16.1246 21.2948 16.2664 21.2986 16.3892C21.1973 16.3911 20.982 16.4073 20.9008 16.3716L20.8941 16.3826L20.457 16.3784C20.3262 16.3739 20.1878 16.3769 20.0564 16.3777C20.0436 16.2854 20.0506 16.1078 20.0516 16.0084C19.2323 16.0077 18.4121 15.9838 17.5917 16.0027C17.334 16.0086 17.0513 16.0131 16.7961 15.9989C16.926 15.9635 17.0339 15.9687 17.168 15.9667Z" fill="#4D4C4D"/>
<path d="M20.0547 15.6128L20.4535 15.6184L20.4689 15.6144L20.8969 15.6131C20.8991 15.7289 20.8971 15.8894 20.9082 16.0013L21.3032 16.0001C21.3009 16.1243 21.2947 16.2661 21.2985 16.3889C21.1972 16.3908 20.9819 16.407 20.9007 16.3713L20.894 16.3823L20.4569 16.3781L20.4618 15.9941L20.0491 15.9959L20.0547 15.6128Z" fill="#424143"/>
<path d="M20.4691 15.6146L20.897 15.6133C20.8992 15.729 20.8972 15.8896 20.9083 16.0014L21.3033 16.0002C21.301 16.1245 21.2948 16.2663 21.2986 16.389C21.1973 16.391 20.9821 16.4072 20.9008 16.3715C20.8968 16.2498 20.8983 16.117 20.8975 15.9944L20.4588 15.9969C20.4549 15.8731 20.4552 15.743 20.4536 15.6186L20.4691 15.6146Z" fill="#353435"/>
<path d="M15.215 16.3823C16.5581 16.3969 17.9006 16.3742 19.2422 16.3861C19.2489 16.5205 19.2495 16.6383 19.2486 16.7724L18.8678 16.7717C17.7145 16.7578 16.5186 16.7698 15.3617 16.7705C15.0875 16.7365 15.289 16.5737 15.2017 16.388L15.215 16.3823Z" fill="#929192"/>
<path d="M19.2422 16.3861C19.3528 16.3867 19.5561 16.3827 19.6585 16.3921C19.6567 16.4885 19.6464 16.6829 19.6662 16.7696L20.0501 16.7679L20.0513 17.156L19.6542 17.1581L19.2555 17.1502L19.2486 16.7724C19.2496 16.6383 19.2489 16.5205 19.2422 16.3861Z" fill="#838283"/>
<path d="M19.6661 16.7697L20.05 16.7681L20.0512 17.1562L19.6542 17.1583L19.6536 16.7736L19.6661 16.7697Z" fill="#929192"/>
<path d="M19.2485 16.7725L19.6536 16.7735L19.6542 17.1582L19.2554 17.1503L19.2485 16.7725Z" fill="#ACABAC"/>
<path d="M14.3967 15.6117L14.8089 15.6094C14.8104 15.7263 14.8083 15.8646 14.815 15.9795C14.9176 15.9716 15.0819 15.9698 15.1795 15.9979L15.0139 16.006L14.8138 16.0025L14.4131 15.9988C14.3931 15.9275 14.3975 15.6975 14.3967 15.6117Z" fill="#424143"/>
<path d="M14.413 15.9985L14.8137 16.0022C14.8009 16.1526 14.8011 16.2353 14.8068 16.3852L14.415 16.3832C14.3965 16.2833 14.4001 16.1088 14.3989 16.002L14.413 15.9985Z" fill="#838283"/>
<path d="M14.8137 16.0024L15.0137 16.0059C15.128 16.0169 15.1228 15.9982 15.1921 16.0592C15.2275 16.1765 15.1758 16.2451 15.215 16.3825L15.2017 16.3881L14.8068 16.3855C14.801 16.2356 14.8008 16.1529 14.8137 16.0024Z" fill="#727072"/>
<path d="M19.6586 16.3919C19.7493 16.392 19.9722 16.3868 20.0524 16.3967C20.0533 16.5208 20.0552 16.6437 20.0501 16.7677L19.6663 16.7694C19.6465 16.6827 19.6568 16.4883 19.6586 16.3919Z" fill="#727072"/>
<path d="M13.3407 15.2292C13.4633 15.2216 13.6273 15.2196 13.7453 15.2004C14.0319 15.1537 13.9514 15.4111 13.983 15.6075L13.9048 15.6133C13.9667 15.6725 13.9546 15.7186 13.9549 15.8139C13.9549 15.8756 13.9546 15.9373 13.9539 15.999L14.3988 16.0019C14.4 16.1087 14.3963 16.2832 14.4148 16.3831L14.4003 16.3875L13.9668 16.3835L13.9537 16.3888C13.9758 16.4969 13.9558 16.6505 13.9571 16.7647L13.9419 16.7705L13.5502 16.7697C13.0127 16.7684 12.4752 16.7703 11.9377 16.7752C11.9407 16.8651 11.9407 17.0316 11.9608 17.1134C11.8308 17.1646 11.3639 17.1654 11.1726 17.191C11.1704 17.2584 11.1758 17.4452 11.1474 17.4893C11.1235 17.3911 11.1429 16.8939 11.1464 16.7723L11.1331 16.7694C11.1497 16.7073 11.1458 16.4661 11.1463 16.3886L11.5327 16.3838L11.5484 16.3872L11.931 16.3836C11.9442 16.3136 11.9514 16.0826 11.9548 16L11.9351 15.9919L11.9463 15.6166L11.9317 15.6123L11.5578 15.6143L11.5432 15.6101L11.5504 15.2239C11.6816 15.2245 11.8193 15.223 11.9498 15.2272C12.4082 15.2263 12.8836 15.2194 13.3407 15.2292Z" fill="#9E9D9E"/>
<path d="M11.931 16.3838L11.9463 16.3878C12.3911 16.3837 12.8359 16.3834 13.2806 16.3869C13.3797 16.4002 13.4485 16.4095 13.5482 16.4114L13.5502 16.7699C13.0127 16.7686 12.4752 16.7704 11.9377 16.7754C11.9407 16.8653 11.9407 17.0318 11.9608 17.1136C11.8308 17.1648 11.3639 17.1655 11.1726 17.1912C11.1704 17.2585 11.1758 17.4454 11.1474 17.4894C11.1235 17.3912 11.1429 16.894 11.1464 16.7724L11.1331 16.7696C11.1497 16.7075 11.1458 16.4663 11.1463 16.3888L11.5327 16.384L11.5484 16.3874L11.931 16.3838Z" fill="#DBDBDC"/>
<path d="M11.931 16.3838L11.9463 16.3878L11.9452 16.7644L11.5452 16.7662C11.4122 16.7656 11.2793 16.7677 11.1464 16.7724L11.1331 16.7696C11.1497 16.7075 11.1458 16.4663 11.1463 16.3888L11.5327 16.384L11.5484 16.3874L11.931 16.3838Z" fill="#CECECE"/>
<path d="M11.5327 16.3838L11.5484 16.3872L11.5452 16.766C11.4122 16.7654 11.2793 16.7675 11.1464 16.7723L11.1331 16.7694C11.1497 16.7073 11.1458 16.4661 11.1463 16.3886L11.5327 16.3838Z" fill="#ACABAC"/>
<path d="M13.3407 15.2292C13.4633 15.2216 13.6273 15.2196 13.7453 15.2004C14.0319 15.1537 13.9514 15.4111 13.983 15.6075L13.9048 15.6133L13.5648 15.6165C13.0254 15.6111 12.4858 15.6111 11.9463 15.6166L11.9317 15.6123L11.5579 15.6143L11.5432 15.6101L11.5504 15.2239C11.6816 15.2245 11.8193 15.223 11.9498 15.2272C12.4082 15.2263 12.8837 15.2194 13.3407 15.2292Z" fill="#5F5F60"/>
<path d="M13.3408 15.2292C13.4635 15.2216 13.6275 15.2196 13.7455 15.2004C14.032 15.1537 13.9516 15.4111 13.9832 15.6075L13.905 15.6133L13.565 15.6165C13.5428 15.4787 13.5767 15.3847 13.5565 15.3009C13.4831 15.2319 13.4568 15.2468 13.3408 15.2292Z" fill="#424143"/>
<path d="M11.5504 15.2241C11.6816 15.2248 11.8193 15.2233 11.9498 15.2275C11.9474 15.2998 11.9508 15.5619 11.9317 15.6126L11.5579 15.6145L11.5432 15.6103L11.5504 15.2241Z" fill="#4D4C4D"/>
<path d="M11.9466 15.6169C12.486 15.6114 13.0256 15.6114 13.5651 15.6169L13.905 15.6136C13.9669 15.6728 13.9549 15.7189 13.9551 15.8142C13.9551 15.8759 13.9548 15.9376 13.9542 15.9993C13.8349 15.9975 13.7055 16.0015 13.5854 16.003C13.042 15.9979 12.4985 15.997 11.955 16.0003L11.9353 15.9922L11.9466 15.6169Z" fill="#727072"/>
<path d="M13.9539 15.999L14.3988 16.0019C14.4 16.1087 14.3963 16.2832 14.4148 16.3831L14.4004 16.3875L13.9669 16.3836C13.9359 16.3004 13.9429 16.1207 13.9419 16.025C13.7937 16.0276 13.7345 16.0292 13.5852 16.0027C13.7053 16.0013 13.8347 15.9972 13.9539 15.999Z" fill="#929192"/>
<path d="M13.2808 16.3868C13.5051 16.3835 13.7295 16.3842 13.9538 16.3889C13.9759 16.4969 13.956 16.6505 13.9573 16.7647L13.9421 16.7705L13.5503 16.7697L13.5484 16.4112C13.4487 16.4094 13.3799 16.4001 13.2808 16.3868Z" fill="#CECECE"/>
<path d="M19.2404 17.1553L19.2556 17.1504L19.6544 17.1583L19.6547 17.5863L19.6502 19.5033L19.6489 19.8601L19.6537 19.8924L19.6492 20.2847C19.5171 20.283 19.3851 20.2834 19.2531 20.286L19.2488 20.715L19.2496 21.0811C19.1289 21.1015 18.9759 21.0941 18.851 21.0927L18.8461 21.4845C18.812 21.4885 18.5199 21.4826 18.4511 21.4835L18.4466 21.4957C18.3352 21.472 18.166 21.486 18.0494 21.4941L18.048 21.0938L17.6468 21.0912L17.6463 20.7109L17.6455 20.2843C17.7611 20.275 17.9366 20.2801 18.0568 20.28L18.0597 20.7011C18.3692 20.7177 18.8765 20.6778 19.2169 20.6772C19.2156 19.6277 19.269 18.6655 19.247 17.5967C19.0817 17.5876 19.0143 17.5869 18.8484 17.602C18.8385 17.4643 18.8418 17.328 18.843 17.19C18.7334 17.1838 18.6779 17.1774 18.5702 17.1579C18.6554 17.1552 18.7906 17.1468 18.8717 17.1525L19.2404 17.1553Z" fill="#E7E6E6"/>
<path d="M19.2402 17.1553L19.2554 17.1504L19.6542 17.1583L19.6546 17.5863C19.5303 17.5817 19.3804 17.5848 19.2542 17.5846C19.2546 17.4495 19.2607 17.2867 19.2402 17.1553Z" fill="#CECECE"/>
<path d="M19.6488 19.8599L19.6535 19.8922L19.649 20.2845C19.517 20.2828 19.385 20.2832 19.2529 20.2858L19.2556 19.8826C19.36 19.8879 19.5582 19.8981 19.6488 19.8599Z" fill="#DBDBDC"/>
<path d="M18.0479 21.0938L18.4504 21.0964L18.4509 21.4834L18.4464 21.4956C18.335 21.4719 18.1658 21.4859 18.0492 21.494L18.0479 21.0938Z" fill="#ACABAC"/>
<path d="M18.845 20.7112C18.9796 20.7104 19.1142 20.7116 19.2487 20.7148L19.2495 21.0809C19.1289 21.1013 18.9758 21.0939 18.851 21.0924C18.8396 20.9992 18.8451 20.8116 18.845 20.7112Z" fill="#DBDBDC"/>
<path d="M17.6462 20.7109L18.0475 20.7143L18.048 21.0939L17.6468 21.0912L17.6462 20.7109Z" fill="#5F5F60"/>
<path d="M14.7947 19.8955L15.2165 19.8962C15.2088 20.039 15.1992 20.1388 15.2194 20.2815C15.5859 20.2816 16.453 20.3031 16.7837 20.2774L16.7985 20.2785L17.1706 20.2822C17.2169 20.3453 17.2019 20.5982 17.2046 20.6932C16.9819 20.7389 16.004 20.6979 15.6994 20.7129C15.2655 20.7104 14.8317 20.7105 14.3979 20.7131C14.3922 20.9691 14.3887 21.225 14.3874 21.481C14.263 21.4723 14.086 21.4738 13.9577 21.4711C13.9329 21.2656 13.9841 20.8578 13.9582 20.7075C13.9503 20.5886 13.9496 20.3988 13.965 20.2832L14.4095 20.2819H14.7964L14.7947 19.8955Z" fill="#2A2A2B"/>
<path d="M14.7947 19.8955L15.2165 19.8962C15.2088 20.039 15.1992 20.1388 15.2194 20.2815L14.7964 20.2819L14.7947 19.8955Z" fill="#ACABAC"/>
<path d="M15.3618 16.7706C16.5187 16.7699 17.7146 16.7579 18.8679 16.7718L19.2486 16.7725L19.2555 17.1504L19.2403 17.1553L18.8716 17.1525C18.7905 17.1468 18.6553 17.1551 18.5701 17.1579C17.4305 17.1336 16.2421 17.1671 15.0908 17.1549C14.9713 17.1292 14.8974 17.1574 14.8208 17.0654C14.7915 16.9886 14.8226 16.8558 14.8354 16.7694C14.9933 16.7702 15.2086 16.7777 15.3618 16.7706Z" fill="#C4C3C4"/>
<path d="M18.8678 16.7715L19.2486 16.7722L19.2555 17.1501L19.2403 17.155L18.8716 17.1522C18.856 17.0086 18.8618 16.9147 18.8678 16.7715Z" fill="#B7B7B7"/>
<path d="M16.382 19.8966L16.8063 19.896C16.8036 20.0117 16.7956 20.1661 16.7986 20.2787L16.7839 20.2775C16.4532 20.3033 15.586 20.2818 15.2196 20.2817C15.1994 20.139 15.209 20.0392 15.2167 19.8964L16.382 19.8966Z" fill="#929192"/>
<path d="M16.3818 19.8966L16.8062 19.896C16.8034 20.0117 16.7955 20.1661 16.7984 20.2787L16.7837 20.2775C16.6992 20.2606 16.4997 20.2608 16.405 20.2584C16.4055 20.1697 16.4189 19.964 16.3818 19.8966Z" fill="#9E9D9E"/>
<path d="M13.9551 19.896L14.4031 19.8955L14.7948 19.8958L14.7965 20.2821H14.4096L13.9651 20.2835C13.9606 20.1543 13.9573 20.0252 13.9551 19.896Z" fill="#E7E6E6"/>
<path d="M14.4031 19.8955L14.7948 19.8958L14.7965 20.2821H14.4096C14.3931 20.1696 14.4012 20.0123 14.4031 19.8955Z" fill="#C4C3C4"/>
<path d="M14.4149 16.3833L14.8067 16.3853L15.2016 16.3879C15.289 16.5736 15.0875 16.7365 15.3617 16.7705C15.2085 16.7775 14.9933 16.7701 14.8353 16.7693C14.6853 16.7724 14.556 16.7683 14.4065 16.7624C14.4103 16.6665 14.4276 16.4711 14.4004 16.3877L14.4149 16.3833Z" fill="#ACABAC"/>
<path d="M17.1981 20.2764C17.3544 20.2847 17.4891 20.2852 17.6454 20.2842L17.6462 20.7108L17.2139 20.7065L17.2047 20.6933C17.202 20.5983 17.217 20.3454 17.1707 20.2823L17.1981 20.2764Z" fill="#5F5F60"/>
<path d="M13.967 16.3838L14.4005 16.3877C14.4277 16.4711 14.4104 16.6665 14.4066 16.7624L14.3897 16.7706C14.2486 16.7731 14.099 16.7677 13.9573 16.7649C13.956 16.6507 13.9759 16.4971 13.9539 16.3891L13.967 16.3838Z" fill="#B7B7B7"/>
<path d="M13.5519 20.2845L13.9651 20.2832C13.9496 20.3988 13.9503 20.5885 13.9583 20.7075L13.5532 20.7101C13.5507 20.5698 13.5523 20.4252 13.5519 20.2845Z" fill="#9E9D9E"/>
<path d="M13.9421 16.771L13.9573 16.7651C14.099 16.7679 14.2486 16.7733 14.3897 16.7709C14.4045 16.8851 14.3922 17.0824 14.4058 17.1535L13.9508 17.1518C13.951 17.021 13.952 16.9018 13.9421 16.771Z" fill="#E7E6E6"/>
<path d="M14.4066 16.7622C14.556 16.7682 14.6853 16.7722 14.8354 16.7691C14.8226 16.8555 14.7915 16.9883 14.8208 17.0651C14.8974 17.157 14.9714 17.1289 15.0908 17.1546C14.9252 17.1692 14.584 17.1554 14.4057 17.1532C14.3922 17.082 14.4044 16.8847 14.3896 16.7705L14.4066 16.7622Z" fill="#DBDBDC"/>
<path d="M13.1521 20.7121L13.5531 20.71C13.5529 20.8286 13.549 20.9741 13.5535 21.0904C13.4765 21.0916 13.2149 21.0911 13.1519 21.0998L13.1418 21.0764C13.154 20.9995 13.151 20.7986 13.1521 20.7121Z" fill="#ACABAC"/>
<path d="M16.8062 19.896L17.2032 19.8988C17.2019 20.0145 17.2043 20.1634 17.1981 20.2764L17.1706 20.2823L16.7985 20.2787C16.7955 20.1661 16.8035 20.0117 16.8062 19.896Z" fill="#C4C3C4"/>
<path d="M20.0562 16.3777C20.1877 16.3769 20.3261 16.3739 20.4568 16.3784L20.894 16.3826L20.9006 16.3716C20.9819 16.4073 21.1971 16.3911 21.2984 16.3892C21.2993 16.5767 21.2249 17.2125 21.5001 17.1719C21.5158 17.1696 21.6274 17.1273 21.6643 17.1195L21.6733 17.043C21.7269 17.163 21.6907 17.7812 21.7005 17.9711L21.7004 18.3565L21.3196 18.3619C21.319 18.4305 21.3207 18.7004 21.307 18.7522C21.2969 18.8878 21.2955 18.9874 21.2968 19.1221C21.313 19.2649 21.3044 19.366 21.2967 19.5085C21.2073 19.5053 20.9763 19.4905 20.9007 19.5069L20.8957 19.4948C20.7822 19.5166 20.5728 19.5083 20.4501 19.5074L20.4521 19.9142L20.4486 20.2727C20.3223 20.2753 20.17 20.2747 20.0459 20.2814C20.0421 20.1679 20.0475 20.0161 20.0484 19.9C19.9168 19.896 19.7851 19.8935 19.6534 19.8923L19.6487 19.86L19.65 19.5033L19.6545 17.5862L19.6542 17.1582L20.0512 17.1561L20.05 16.768C20.0551 16.644 20.0532 16.5211 20.0522 16.397L20.0562 16.3777Z" fill="#6B6B6C"/>
<path d="M20.0561 17.5877C20.1886 17.5829 20.3212 17.5809 20.4538 17.5817L20.456 17.9413L20.4501 19.507L20.4521 19.9138L20.4486 20.2724C20.3223 20.2749 20.17 20.2743 20.0459 20.281C20.0421 20.1676 20.0475 20.0158 20.0484 19.8997C19.9168 19.8957 19.7851 19.8931 19.6534 19.892L19.6487 19.8597L19.65 19.503L19.6545 17.5859C19.7548 17.5851 19.9609 17.5763 20.0496 17.599L20.0561 17.5877Z" fill="#9E9D9E"/>
<path d="M19.6547 17.5863C19.755 17.5855 19.9611 17.5767 20.0497 17.5994L20.052 17.9624C20.0554 18.477 20.0544 18.9916 20.0492 19.5062C19.9382 19.5068 19.7553 19.513 19.6501 19.5034L19.6547 17.5863Z" fill="#CECECE"/>
<path d="M20.049 19.5058L20.0484 19.8997C19.9168 19.8957 19.7851 19.8931 19.6534 19.8919L19.6487 19.8596L19.65 19.5029C19.7551 19.5126 19.938 19.5064 20.049 19.5058Z" fill="#C4C3C4"/>
<path d="M20.0561 17.5877C20.1886 17.5829 20.3212 17.5809 20.4538 17.5817L20.456 17.9413C20.3415 17.9698 20.1741 17.9621 20.0518 17.962L20.0496 17.599L20.0561 17.5877Z" fill="#929192"/>
<path d="M20.9008 16.3716C20.982 16.4073 21.1973 16.3911 21.2986 16.3892C21.2995 16.5767 21.225 17.2125 21.5003 17.1719C21.516 17.1696 21.6276 17.1273 21.6644 17.1195L21.6735 17.043C21.7271 17.163 21.6909 17.7812 21.7007 17.9711L21.7006 18.3565L21.3198 18.3619C21.3192 18.4305 21.3208 18.7004 21.3071 18.7522C21.2082 18.7471 20.9836 18.7267 20.9014 18.766C20.9069 18.1097 20.877 17.425 20.8979 16.7741C20.903 16.6538 20.8963 16.505 20.8941 16.3826L20.9008 16.3716Z" fill="#4D4C4D"/>
<path d="M20.9007 16.3716C20.9819 16.4073 21.1972 16.3911 21.2985 16.3892C21.2994 16.5767 21.2249 17.2125 21.5002 17.1719C21.5159 17.1696 21.6275 17.1273 21.6643 17.1195L21.6734 17.043C21.727 17.163 21.6908 17.7812 21.7006 17.9711C21.571 17.9675 21.426 17.9666 21.2979 17.9597C21.2852 17.5755 21.2898 17.1666 21.2875 16.7806C21.1725 16.776 20.9769 16.813 20.8978 16.7741C20.9029 16.6538 20.8962 16.505 20.894 16.3826L20.9007 16.3716Z" fill="#353435"/>
<path d="M21.2979 17.9595C21.4259 17.9664 21.571 17.9673 21.7005 17.9709L21.7005 18.3563L21.3197 18.3617C21.3191 18.4303 21.3207 18.7002 21.307 18.752C21.2872 18.5813 21.2977 18.1544 21.2979 17.9595Z" fill="#262626"/>
<path d="M20.0514 17.156C20.1844 17.1512 20.3273 17.1555 20.454 17.1499L20.4539 17.582C20.3213 17.5812 20.1888 17.5831 20.0563 17.588L20.0497 17.5993C19.9611 17.5766 19.7549 17.5854 19.6547 17.5861L19.6543 17.1582L20.0514 17.156Z" fill="#838283"/>
<path d="M19.6543 17.1579L20.0514 17.1558C20.0528 17.2928 20.0501 17.4528 20.0563 17.5877L20.0497 17.599C19.9611 17.5763 19.7549 17.5851 19.6547 17.5859L19.6543 17.1579Z" fill="#ACABAC"/>
<path d="M20.0563 16.3777C20.1878 16.3769 20.3261 16.3739 20.4569 16.3784C20.4559 16.4842 20.45 16.629 20.4593 16.7314L20.4542 16.7591L20.454 17.15C20.3273 17.1556 20.1844 17.1513 20.0513 17.1561L20.05 16.768C20.0551 16.644 20.0533 16.5211 20.0523 16.397L20.0563 16.3777Z" fill="#5F5F60"/>
<path d="M20.05 16.7677C20.1773 16.7691 20.3291 16.7721 20.4542 16.7588L20.454 17.1497C20.3273 17.1553 20.1844 17.151 20.0513 17.1558L20.05 16.7677Z" fill="#727072"/>
<path d="M20.4569 16.3784L20.894 16.3826C20.8961 16.505 20.9029 16.6538 20.8978 16.7741C20.8124 16.734 20.5504 16.8102 20.4592 16.7314C20.45 16.629 20.4558 16.4842 20.4569 16.3784Z" fill="#4D4C4D"/>
<path d="M21.2969 19.1219C21.3132 19.2647 21.3045 19.3658 21.2968 19.5083C21.2074 19.5051 20.9764 19.4904 20.9008 19.5068L20.8958 19.4946L20.8955 19.2005L20.9335 19.1379C21.0358 19.1089 21.1865 19.1198 21.2969 19.1219Z" fill="#262626"/>
<path d="M21.3071 18.752C21.297 18.8877 21.2957 18.9873 21.2969 19.122C21.1865 19.1198 21.0358 19.1089 20.9335 19.1379L20.8955 19.2005L20.9014 18.7659C20.9836 18.7265 21.2082 18.7469 21.3071 18.752Z" fill="#424143"/>
<path d="M12.753 22.6348C12.8435 22.6355 13.0703 22.6322 13.1499 22.641L13.1538 23.0204C13.287 23.0235 13.4203 23.0239 13.5536 23.0216L13.9596 23.0227C13.944 23.1508 13.9513 23.2782 13.9549 23.4071L14.3964 23.4097C14.3971 23.508 14.393 23.7512 14.4124 23.8335L14.7984 23.8375L15.0556 23.8388L15.2335 23.829C15.4916 23.8342 15.7498 23.8352 16.0079 23.832C16.0896 23.8324 16.204 23.8296 16.2828 23.8348L16.398 23.8371L16.8015 23.833C16.8011 23.9324 16.8084 24.1324 16.7815 24.2197C16.7931 24.3464 16.7918 24.4425 16.7901 24.5684C16.7267 24.5748 16.4283 24.5933 16.4009 24.5983L16.4144 24.607L16.787 24.6041C16.7944 24.7391 16.7979 24.8459 16.7953 24.982L16.4056 24.9826C15.8626 24.9871 15.3195 24.9869 14.7765 24.982L14.4065 24.9796L14.4088 24.6153C14.2545 24.6166 14.1013 24.6212 13.9478 24.6067L13.9132 24.6024C13.7944 24.6302 13.6856 24.6258 13.564 24.6264L13.5616 24.9259C13.5378 24.6898 13.5284 24.5164 13.5205 24.2812C13.3297 24.1964 12.9112 24.3322 12.7492 24.1928C12.706 24.1109 12.7245 23.9528 12.7278 23.8543C12.6049 23.8527 12.452 23.8648 12.3271 23.8715C12.3247 23.696 12.309 23.3823 12.3461 23.2224C12.3516 23.1812 12.3493 23.0693 12.3495 23.0223L12.7344 23.0229L12.7471 23.0198L12.753 22.6348Z" fill="#727072"/>
<path d="M12.753 22.6348C12.8435 22.6355 13.0703 22.6322 13.1499 22.641L13.1538 23.0204C13.287 23.0235 13.4203 23.0239 13.5536 23.0216L13.5523 23.4018C13.5537 23.5462 13.5532 23.6906 13.551 23.8349C13.5515 23.9484 13.5474 24.1098 13.5534 24.2196L13.9541 24.2205L13.9478 24.6067L13.9132 24.6024C13.7944 24.6302 13.6856 24.6258 13.564 24.6264L13.5616 24.9259C13.5378 24.6898 13.5284 24.5164 13.5205 24.2812C13.3297 24.1964 12.9112 24.3322 12.7492 24.1928C12.706 24.1109 12.7245 23.9528 12.7278 23.8543C12.6049 23.8527 12.452 23.8648 12.3271 23.8715C12.3247 23.696 12.309 23.3823 12.3461 23.2224C12.3516 23.1812 12.3493 23.0693 12.3495 23.0223L12.7344 23.0229L12.7471 23.0198L12.753 22.6348Z" fill="#262626"/>
<path d="M12.7531 22.6348C12.8435 22.6355 13.0703 22.6322 13.15 22.641L13.1538 23.0204C13.287 23.0235 13.4203 23.0239 13.5536 23.0216L13.5523 23.4018L13.1628 23.4051L12.7468 23.4079C12.7487 23.3035 12.7602 23.1171 12.7344 23.0229L12.7471 23.0198L12.7531 22.6348Z" fill="#838283"/>
<path d="M12.7531 22.6348C12.8435 22.6355 13.0703 22.6322 13.15 22.641L13.1538 23.0204C13.0344 23.0206 12.8624 23.0255 12.7471 23.0198L12.7531 22.6348Z" fill="#9E9D9E"/>
<path d="M13.5522 23.4019C13.5536 23.5462 13.5531 23.6906 13.5509 23.835L13.1676 23.8324C13.1384 23.753 13.1555 23.4963 13.1627 23.4051L13.5522 23.4019Z" fill="#727072"/>
<path d="M12.7466 23.4081L13.1626 23.4053C13.1554 23.4965 13.1383 23.7531 13.1675 23.8325L13.1537 23.8367L12.7472 23.8333L12.7466 23.4081Z" fill="#727072"/>
<path d="M13.1677 23.8325L13.551 23.8351C13.5516 23.9486 13.5474 24.11 13.5534 24.2198L13.1489 24.2165L13.1539 23.8367L13.1677 23.8325Z" fill="#5F5F60"/>
<path d="M12.3494 23.0225L12.7343 23.0231C12.7601 23.1173 12.7486 23.3038 12.7466 23.4081C12.6207 23.3995 12.4814 23.4375 12.3827 23.39C12.3328 23.3238 12.3494 23.3205 12.346 23.2226C12.3515 23.1814 12.3492 23.0695 12.3494 23.0225Z" fill="#5F5F60"/>
<path d="M13.5532 24.2197L13.954 24.2206L13.9477 24.6069L13.913 24.6025C13.8042 24.5964 13.6649 24.5991 13.5537 24.5981L13.5532 24.2197Z" fill="#424143"/>
<path d="M16.4008 24.5981L16.4143 24.6069L16.787 24.604C16.7944 24.739 16.7978 24.8457 16.7952 24.9818L16.4055 24.9825C15.8625 24.9869 15.3195 24.9867 14.7765 24.9818L14.7783 24.9673C14.7923 24.8542 14.825 24.6903 14.7556 24.6056C15.2097 24.6062 15.9678 24.63 16.4008 24.5981Z" fill="#353435"/>
<path d="M16.4143 24.6069L16.787 24.604C16.7943 24.739 16.7978 24.8458 16.7952 24.9819L16.4055 24.9825C16.3976 24.8927 16.3931 24.6917 16.4143 24.6069Z" fill="#262626"/>
<path d="M15.2335 23.8291C15.4915 23.8343 15.7497 23.8353 16.0079 23.8322C16.0055 23.9179 16.008 24.1492 15.9805 24.217L15.22 24.2172L14.8012 24.2144C14.8033 24.0888 14.8023 23.9632 14.7983 23.8376L15.0556 23.8389L15.2335 23.8291Z" fill="#424143"/>
<path d="M14.7983 23.8374L15.0556 23.8387C15.1625 23.8514 15.1498 23.8327 15.2019 23.8945C15.2232 24.0318 15.1813 24.0736 15.22 24.217L14.8012 24.2141C14.8033 24.0886 14.8023 23.9629 14.7983 23.8374Z" fill="#4D4C4D"/>
<path d="M13.9548 23.4072L14.3963 23.4098C14.397 23.5081 14.3929 23.7513 14.4123 23.8336L14.3989 23.837C14.2773 23.8297 14.0926 23.8342 13.9663 23.8338C13.946 23.7459 13.9541 23.5095 13.9548 23.4072Z" fill="#4D4C4D"/>
<path d="M13.551 23.8351C13.6677 23.8354 13.842 23.8312 13.9543 23.8375C13.9684 23.9126 13.9644 24.1427 13.9541 24.2207L13.5534 24.2198C13.5473 24.11 13.5515 23.9486 13.551 23.8351Z" fill="#838283"/>
<path d="M16.3979 23.837L16.8015 23.833C16.8011 23.9324 16.8084 24.1323 16.7814 24.2197C16.6516 24.2224 16.528 24.2199 16.3985 24.2171L16.3979 23.837Z" fill="#5F5F60"/>
<path d="M14.4124 23.8335L14.7983 23.8375C14.8023 23.963 14.8033 24.0887 14.8012 24.2142L14.3977 24.2149L14.399 23.8369L14.4124 23.8335Z" fill="#5F5F60"/>
<path d="M16.0078 23.8319C16.0895 23.8323 16.204 23.8295 16.2827 23.8348L16.3979 23.837L16.3985 24.2171L15.9805 24.2167C16.0079 24.149 16.0055 23.9177 16.0078 23.8319Z" fill="#4D4C4D"/>
<path d="M13.5535 23.0215L13.9595 23.0226C13.9439 23.1507 13.9512 23.2781 13.9548 23.407C13.8206 23.4044 13.6865 23.4026 13.5522 23.4017L13.5535 23.0215Z" fill="#4D4C4D"/>
<path d="M13.9478 24.6067C14.217 24.6009 14.4864 24.6005 14.7556 24.6056C14.825 24.6903 14.7924 24.8543 14.7783 24.9673L14.7765 24.9819L14.4065 24.9795L14.4087 24.6152C14.2545 24.6166 14.1012 24.6211 13.9478 24.6067Z" fill="#262626"/>
<path d="M20.0461 20.2811C20.1702 20.2744 20.3225 20.275 20.4488 20.2725L20.4542 20.2921L20.4538 20.7052L20.453 21.0962L20.0528 21.0923L20.05 21.4642L20.0525 21.4795L20.0512 21.8507L20.0555 21.8634L20.0508 22.2498C20.0503 22.3756 20.0511 22.5013 20.053 22.627L19.6516 22.632L19.6517 23.0199L19.2514 23.0237L19.2523 23.4046L18.8504 23.4027L18.8502 23.8322L18.4474 23.8339L18.4417 23.8058C18.2921 23.7996 18.2583 23.8232 18.0603 23.8026C18.057 23.671 18.0565 23.5394 18.0588 23.4078C17.922 23.408 17.7852 23.4073 17.6484 23.4056L17.6475 23.0184C17.7771 23.0215 17.9156 23.0177 18.0459 23.0164L18.0463 22.635L18.0487 22.2567C18.1831 22.2496 18.317 22.2536 18.4515 22.2558L18.4481 21.8675L18.4465 21.4954L18.4511 21.4832C18.5199 21.4823 18.812 21.4882 18.846 21.4842L18.851 21.0924C18.9758 21.0938 19.1289 21.1012 19.2495 21.0808L19.2488 20.7147L19.253 20.2857C19.385 20.2831 19.5171 20.2827 19.6491 20.2844L19.6536 20.2972C19.7424 20.2775 19.9468 20.2819 20.0461 20.2811Z" fill="#727072"/>
<path d="M20.0461 20.2811C20.1702 20.2744 20.3225 20.275 20.4489 20.2725L20.4542 20.2921L20.4539 20.7052L20.453 21.0962L20.0528 21.0923L20.05 21.4642C19.9621 21.4903 19.7555 21.4795 19.6546 21.4783L19.652 21.0975L19.2538 21.0933L19.2495 21.0808L19.2488 20.7147L19.253 20.2857C19.3851 20.2831 19.5171 20.2827 19.6491 20.2844L19.6537 20.2972C19.7425 20.2775 19.9468 20.2819 20.0461 20.2811Z" fill="#CECECE"/>
<path d="M20.0461 20.2811C20.1702 20.2744 20.3226 20.275 20.4489 20.2725L20.4543 20.2921L20.4539 20.7052L20.453 21.0962L20.0529 21.0923L20.0535 20.7239L20.0481 20.7145C20.0521 20.57 20.0514 20.4255 20.0461 20.2811Z" fill="#838283"/>
<path d="M20.0534 20.7238C20.1058 20.7092 20.3779 20.7065 20.4538 20.7051L20.4529 21.0961L20.0527 21.0922L20.0534 20.7238Z" fill="#727072"/>
<path d="M20.0479 20.7144L20.0533 20.7239L20.0526 21.0922L20.0498 21.4642C19.9619 21.4902 19.7553 21.4794 19.6544 21.4783L19.6518 21.0974L19.6487 20.813C19.6602 20.78 19.6681 20.768 19.6843 20.7376C19.795 20.6854 19.922 20.7319 20.0479 20.7144Z" fill="#929192"/>
<path d="M19.6535 20.2973C19.7424 20.2777 19.9467 20.2821 20.046 20.2812C20.0513 20.4256 20.052 20.5701 20.048 20.7146C19.9221 20.7321 19.7951 20.6856 19.6844 20.7378C19.6682 20.7682 19.6603 20.7802 19.6488 20.8132L19.6475 20.7165C19.6543 20.5887 19.6518 20.4278 19.6535 20.2973Z" fill="#9E9D9E"/>
<path d="M19.2488 20.7147C19.3681 20.7138 19.5321 20.708 19.6476 20.7164L19.6489 20.813L19.652 21.0974L19.2538 21.0933L19.2495 21.0808L19.2488 20.7147Z" fill="#B7B7B7"/>
<path d="M19.2494 21.0811L19.2537 21.0935L19.6518 21.0977L19.6545 21.4786C19.5735 21.4798 19.3164 21.4784 19.2516 21.4939C19.2506 21.6043 19.2539 21.7597 19.2469 21.8659L18.8545 21.8635C18.8487 21.7437 18.8512 21.615 18.8511 21.4944L18.8459 21.4845L18.8509 21.0926C18.9757 21.0941 19.1288 21.1015 19.2494 21.0811Z" fill="#C4C3C4"/>
<path d="M19.2537 21.0933L19.6518 21.0974L19.6545 21.4783C19.5735 21.4796 19.3164 21.4781 19.2516 21.4936L19.2468 21.4832L19.2537 21.0933Z" fill="#9E9D9E"/>
<path d="M18.8511 21.4944C18.9701 21.4737 19.1233 21.4817 19.2468 21.4835L19.2515 21.4938C19.2506 21.6042 19.2538 21.7597 19.2468 21.8659L18.8544 21.8635C18.8487 21.7436 18.8511 21.615 18.8511 21.4944Z" fill="#ACABAC"/>
<path d="M20.0498 21.4644L20.0524 21.4796L20.051 21.8508C19.9307 21.8715 19.7148 21.8575 19.6591 21.8705C19.5324 21.8665 19.3907 21.8449 19.2835 21.8921C19.255 21.9414 19.2576 21.9576 19.2519 22.0154L19.2468 21.8658C19.2538 21.7596 19.2505 21.6041 19.2515 21.4937C19.3164 21.4783 19.5735 21.4797 19.6544 21.4785C19.7553 21.4796 19.9619 21.4904 20.0498 21.4644Z" fill="#838283"/>
<path d="M18.4511 21.4835C18.5199 21.4826 18.812 21.4885 18.846 21.4845L18.8512 21.4944C18.8512 21.6151 18.8488 21.7437 18.8546 21.8636L18.8472 22.2545C18.7153 22.2536 18.5834 22.2541 18.4515 22.2561L18.4481 21.8678L18.4465 21.4957L18.4511 21.4835Z" fill="#B7B7B7"/>
<path d="M18.4511 21.4835C18.5199 21.4826 18.812 21.4885 18.846 21.4845L18.8512 21.4944C18.8512 21.6151 18.8488 21.7437 18.8546 21.8636L18.4481 21.8678L18.4465 21.4957L18.4511 21.4835Z" fill="#CECECE"/>
<path d="M18.0487 22.2569C18.1831 22.2499 18.3169 22.2538 18.4515 22.256C18.4514 22.3667 18.4464 22.5277 18.4516 22.6347L18.4512 23.0196L18.0459 23.0166L18.0463 22.6353L18.0487 22.2569Z" fill="#838283"/>
<path d="M20.0512 21.8511L20.0555 21.8638L20.0508 22.2502C20.0503 22.3759 20.0511 22.5017 20.053 22.6274L19.6516 22.6323L19.6556 22.2512C19.6524 22.1196 19.6552 22.0017 19.6593 21.8707C19.7149 21.8578 19.9308 21.8717 20.0512 21.8511Z" fill="#5F5F60"/>
<path d="M20.0508 22.25C20.0503 22.3757 20.0511 22.5015 20.053 22.6272L19.6516 22.6321L19.6556 22.251L20.0508 22.25Z" fill="#353435"/>
<path d="M18.447 23.4042L18.8503 23.4028L18.8501 23.8323L18.4473 23.834L18.4417 23.8059C18.4474 23.6799 18.4455 23.532 18.447 23.4042Z" fill="#4D4C4D"/>
<path d="M18.8479 23.0229L19.2513 23.024L19.2522 23.4049L18.8503 23.403C18.8466 23.2805 18.8485 23.1464 18.8479 23.0229Z" fill="#5F5F60"/>
<path d="M18.4515 22.2559C18.5833 22.254 18.7152 22.2534 18.8471 22.2543L18.8512 22.2644L18.8499 22.6332L18.4515 22.6346C18.4464 22.5275 18.4514 22.3665 18.4515 22.2559Z" fill="#929192"/>
<path d="M19.2526 22.6359C19.3842 22.6364 19.5195 22.6337 19.6514 22.6323L19.6515 23.0202L19.2512 23.024L19.2526 22.6359Z" fill="#4D4C4D"/>
<path d="M18.8546 21.8633L19.247 21.8656L19.2521 22.0152L19.2579 22.249C19.1585 22.25 18.9389 22.2461 18.8513 22.2643L18.8472 22.2542L18.8546 21.8633Z" fill="#929192"/>
<path d="M13.5533 20.7101L13.9584 20.7075C13.9842 20.8578 13.933 21.2656 13.9578 21.4711C13.9552 21.6695 13.9514 21.8647 13.959 22.0631C13.9691 22.3301 14.0101 22.684 13.9735 22.9473C13.9729 22.9877 13.978 22.989 13.9596 23.0228L13.5536 23.0216C13.4203 23.0239 13.287 23.0235 13.1538 23.0204L13.15 22.6411C13.0703 22.6322 12.8435 22.6356 12.7531 22.6349L12.3505 22.6308L12.3508 22.2504C12.345 22.1451 12.3504 21.9761 12.3509 21.8672L12.7439 21.858L12.7622 21.8663C12.8606 21.8684 13.065 21.8809 13.1501 21.8568L13.1511 21.4953L13.1521 21.0999C13.2151 21.0913 13.4767 21.0917 13.5537 21.0906C13.5492 20.9742 13.5531 20.8287 13.5533 20.7101Z" fill="#353435"/>
<path d="M13.5533 20.7101L13.9583 20.7075C13.9842 20.8578 13.9329 21.2656 13.9577 21.4711C13.9551 21.6695 13.9514 21.8647 13.9589 22.0631C13.9691 22.3301 14.01 22.684 13.9734 22.9473C13.9729 22.9877 13.9779 22.989 13.9596 23.0228L13.5535 23.0216L13.5513 22.6395L13.5573 22.6205C13.5484 22.4114 13.5775 21.5817 13.5565 21.4768C13.5518 21.3564 13.5544 21.2125 13.5537 21.0906C13.5491 20.9742 13.5531 20.8287 13.5533 20.7101Z" fill="#262626"/>
<path d="M13.5861 22.2632L13.9415 22.2578C13.9415 22.4133 13.9367 22.8148 13.9734 22.9472C13.9729 22.9876 13.9779 22.989 13.9596 23.0227L13.5535 23.0216L13.5513 22.6394L13.5573 22.6205C13.5847 22.4857 13.5836 22.3985 13.5861 22.2632Z" fill="#171718"/>
<path d="M13.1501 21.8569L13.1605 21.875C13.1473 22.0725 13.1511 22.2772 13.1517 22.4756L13.15 22.6412C13.0703 22.6323 12.8435 22.6357 12.7531 22.635L12.3505 22.6309L12.3508 22.2505C12.345 22.1452 12.3504 21.9762 12.3509 21.8673L12.7439 21.8581L12.7622 21.8664C12.8606 21.8685 13.065 21.881 13.1501 21.8569Z" fill="#B7B7B7"/>
<path d="M12.3509 21.867L12.7439 21.8579L12.7622 21.8662C12.7615 22.0021 12.7601 22.1089 12.7741 22.2448C12.633 22.2449 12.4919 22.2467 12.3508 22.2503C12.345 22.1449 12.3504 21.976 12.3509 21.867Z" fill="#C4C3C4"/>
<path d="M13.5535 21.0908C13.5543 21.2127 13.5517 21.3566 13.5564 21.4771L13.1723 21.4899C13.1733 21.5851 13.1791 21.7895 13.1604 21.8751L13.1499 21.8571L13.1509 21.4956L13.1519 21.1001C13.215 21.0915 13.4765 21.092 13.5535 21.0908Z" fill="#5F5F60"/>
<path d="M13.1517 22.4756C13.1633 22.5693 13.1469 22.5656 13.2024 22.6231C13.3023 22.6623 13.4281 22.6258 13.5513 22.6395L13.5535 23.0217C13.4203 23.024 13.287 23.0236 13.1537 23.0205L13.1499 22.6411L13.1517 22.4756Z" fill="#727072"/>
<path d="M17.6483 23.4057C17.7851 23.4074 17.9219 23.4081 18.0587 23.4079C18.0565 23.5395 18.057 23.6711 18.0602 23.8027C18.2583 23.8233 18.292 23.7997 18.4417 23.8058L18.4474 23.834L18.4472 24.2164L18.0354 24.2202C18.0322 24.339 18.0392 24.4728 18.0426 24.5926C17.911 24.5936 17.7783 24.5955 17.6468 24.5948C17.5068 24.602 17.3384 24.5997 17.1961 24.601L16.787 24.6041L16.4144 24.607L16.4009 24.5983C16.4282 24.5933 16.7267 24.5748 16.79 24.5685C16.7917 24.4425 16.7931 24.3464 16.7815 24.2197C16.8084 24.1324 16.8011 23.9325 16.8015 23.8331C16.7994 23.6929 16.803 23.5438 16.804 23.4028L17.1873 23.4052L17.2021 23.4097C17.3022 23.4 17.538 23.4057 17.6483 23.4057Z" fill="#5F5F60"/>
<path d="M17.6534 24.2163L17.6626 24.2216L18.0353 24.2205C18.0322 24.3393 18.0391 24.4731 18.0425 24.5929C17.911 24.5939 17.7782 24.5958 17.6468 24.5951C17.5067 24.6022 17.3384 24.6 17.196 24.6013C17.2056 24.4804 17.1991 24.3433 17.1965 24.2209L17.6534 24.2163Z" fill="#4D4C4D"/>
<path d="M17.6627 24.2214L18.0355 24.2202C18.0323 24.339 18.0392 24.4728 18.0426 24.5927C17.9111 24.5936 17.7783 24.5955 17.6469 24.5949C17.6459 24.4844 17.6375 24.3249 17.6627 24.2214Z" fill="#262626"/>
<path d="M17.1885 23.8292C17.363 23.8167 17.4765 23.8192 17.6519 23.8256L17.6536 24.2159L17.1967 24.2206C17.1809 24.1262 17.193 23.9396 17.1885 23.8292Z" fill="#727072"/>
<path d="M16.8039 23.4028L17.1872 23.4052L17.202 23.4097L17.1994 23.8298L16.8014 23.8331C16.7993 23.6929 16.8029 23.5438 16.8039 23.4028Z" fill="#4D4C4D"/>
<path d="M18.0569 23.8341L18.4474 23.834L18.4472 24.2164L18.0354 24.2202C18.0546 24.1461 18.0546 23.9215 18.0569 23.8341Z" fill="#424143"/>
<path d="M10.7097 15.6124C10.6966 15.1545 10.7307 15.2727 11.1437 15.23C11.1446 15.3293 11.1529 15.5265 11.1331 15.6162L11.1468 15.6194C11.279 15.6177 11.4111 15.6147 11.5432 15.6105L11.5579 15.6147L11.9317 15.6127L11.9463 15.617L11.9351 15.9923C11.8376 16.0037 11.6512 16.0013 11.547 16.003C11.5464 16.0804 11.5508 16.3231 11.5327 16.3842L11.1464 16.389C11.1458 16.4666 11.1497 16.7077 11.1331 16.7698L10.7022 16.769L10.7009 16.3762L10.7028 15.9922C10.7004 15.8617 10.7046 15.7425 10.7097 15.6124Z" fill="#5F5F60"/>
<path d="M10.7098 15.6124C10.6967 15.1545 10.7307 15.2727 11.1438 15.23C11.1446 15.3293 11.153 15.5265 11.1331 15.6162L11.1469 15.6194C11.1455 15.742 11.1418 15.8735 11.1433 15.9953C11.0059 15.9949 10.8378 15.9983 10.7028 15.9922C10.7004 15.8617 10.7047 15.7425 10.7098 15.6124Z" fill="#424143"/>
<path d="M10.71 15.6124C10.6968 15.1545 10.7309 15.2727 11.1439 15.23C11.1448 15.3293 11.1531 15.5265 11.1333 15.6162L10.71 15.6124Z" fill="#353435"/>
<path d="M10.7009 16.376C10.8442 16.3814 10.9877 16.3843 11.1311 16.3845L11.1464 16.3888C11.1458 16.4663 11.1497 16.7075 11.1331 16.7696L10.7022 16.7687L10.7009 16.376Z" fill="#838283"/>
<path d="M11.5325 15.9987L11.547 16.0029C11.5464 16.0803 11.5509 16.3229 11.5327 16.3841L11.1464 16.3889L11.1311 16.3846C11.1431 16.3328 11.1406 16.0673 11.141 15.998L11.5325 15.9987Z" fill="#727072"/>
<path d="M11.9317 15.6123L11.9463 15.6166L11.9351 15.9919C11.8376 16.0032 11.6512 16.0009 11.5469 16.0026L11.5325 15.9984C11.5403 15.962 11.5519 15.6773 11.5578 15.6143L11.9317 15.6123Z" fill="#5F5F60"/>
<path d="M20.8958 19.4946L20.9007 19.5068C20.8993 19.6357 20.8961 19.7677 20.8983 19.8963L20.8983 20.2817L20.899 20.7049C20.7741 20.7037 20.5723 20.6969 20.4537 20.7052L20.4541 20.2922L20.4487 20.2725L20.4522 19.914L20.4502 19.5072C20.5729 19.5081 20.7823 19.5164 20.8958 19.4946Z" fill="#5F5F60"/>
<path d="M20.4542 20.2921C20.5516 20.2776 20.7895 20.282 20.8985 20.2815L20.8991 20.7048C20.7742 20.7036 20.5725 20.6968 20.4539 20.7051L20.4542 20.2921Z" fill="#262626"/>
<path d="M20.4522 19.9142C20.5164 19.8802 20.8095 19.8952 20.8983 19.8965L20.8983 20.2819C20.7894 20.2823 20.5514 20.278 20.4541 20.2924L20.4487 20.2728L20.4522 19.9142Z" fill="#424143"/>
<path d="M11.9508 22.2527L12.3507 22.2505L12.3504 22.6309L12.7529 22.6349L12.7469 23.0199L12.7343 23.023L12.3494 23.0224C12.1966 23.0099 12.0589 23.0638 11.9553 22.9784L11.9484 22.8923L11.9519 22.6359C11.9454 22.525 11.9481 22.378 11.947 22.2643L11.9508 22.2527Z" fill="#929192"/>
<path d="M11.9519 22.6357L12.3507 22.6359L12.3494 23.0222C12.1967 23.0098 12.0589 23.0637 11.9553 22.9783L11.9485 22.8922L11.9519 22.6357Z" fill="#4D4C4D"/>
<path d="M11.9485 22.8923L11.9223 22.8862C11.8893 22.8276 11.9044 22.7571 11.9059 22.6807C11.7841 22.5833 11.6282 22.6582 11.5477 22.7743L11.5344 22.7937C11.5329 22.6397 11.524 22.0138 11.4918 21.9097C11.408 21.8571 11.2874 21.8791 11.175 21.8824C11.2461 21.8368 11.4618 21.8546 11.5512 21.8601C11.6409 21.8612 11.8738 21.8569 11.9475 21.8792L11.9508 22.2526L11.947 22.2642C11.9481 22.3779 11.9454 22.5249 11.9519 22.6358L11.9485 22.8923Z" fill="#262626"/>
<path d="M11.5513 21.8599C11.641 21.861 11.8738 21.8567 11.9476 21.879L11.9509 22.2524L11.9471 22.264C11.8609 22.2451 11.6498 22.2518 11.5519 22.2519L11.5513 21.8599Z" fill="#5F5F60"/>
<path d="M20.0526 21.0923L20.4528 21.0962L20.4512 21.4803L20.4511 21.8598L20.0553 21.8635L20.051 21.8507L20.0523 21.4795L20.0498 21.4642L20.0526 21.0923Z" fill="#4D4C4D"/>
<path d="M20.0526 21.4795L20.4515 21.4803L20.4514 21.8598L20.0555 21.8635L20.0513 21.8507L20.0526 21.4795Z" fill="#262626"/>
<path d="M10.2122 16.3532C10.2402 16.3526 10.2547 16.3538 10.2827 16.3564C10.319 16.4091 10.3319 17.077 10.3154 17.1464L10.2971 17.1409C10.2757 16.9034 10.2922 16.638 10.2675 16.4173C10.1745 16.3977 10.0433 16.4119 9.94511 16.4178C9.94313 16.5792 9.9736 17.0884 9.92754 17.206L9.89605 17.2173L9.88403 17.1621C9.75438 17.1757 9.65154 17.1761 9.52216 17.1771V17.7015C9.52454 17.8684 9.52356 18.4526 9.49075 18.6054C9.42987 18.4676 9.50918 17.0496 9.52136 16.7721C9.6476 16.773 9.77381 16.7748 9.90001 16.7776L9.9011 16.3532L10.2122 16.3532Z" fill="#262626"/>
<path d="M19.7021 15.5904C19.8152 15.5813 19.9332 15.6002 20.0081 15.5636C20.0396 15.4938 20.0406 15.3833 20.0436 15.3055C19.9614 15.212 18.6535 15.2708 18.4053 15.2338C18.5783 15.2124 18.9143 15.2191 19.0959 15.2199L20.4504 15.236C20.4521 15.361 20.45 15.4912 20.469 15.6145L20.4535 15.6185L20.0547 15.6129C19.9707 15.6129 19.7639 15.6241 19.7021 15.5904Z" fill="#262626"/>
<path d="M13.905 15.6137L13.9832 15.6079L14.3967 15.6117C14.3975 15.6975 14.3931 15.9275 14.4131 15.9987L14.399 16.0022L13.9541 15.9993C13.9548 15.9376 13.9551 15.8759 13.9551 15.8142C13.9548 15.719 13.9669 15.6729 13.905 15.6137Z" fill="#5F5F60"/>
<path d="M11.1437 15.2297C11.2326 15.2156 11.4617 15.2204 11.5504 15.224L11.5432 15.6102C11.4111 15.6145 11.279 15.6174 11.1468 15.6191L11.1331 15.6159C11.1529 15.5262 11.1446 15.3291 11.1437 15.2297Z" fill="#424143"/>
<path d="M11.9351 15.9922L11.9549 16.0003C11.9514 16.0829 11.9443 16.3139 11.931 16.3839L11.5484 16.3875L11.5327 16.3841C11.5509 16.3229 11.5464 16.0803 11.547 16.0029C11.6512 16.0012 11.8377 16.0035 11.9351 15.9922Z" fill="#929192"/>
<path d="M19.6534 19.8921C19.7851 19.8932 19.9168 19.8958 20.0484 19.8998C20.0475 20.0159 20.0421 20.1677 20.0459 20.2812C19.9466 20.282 19.7423 20.2776 19.6534 20.2972L19.6489 20.2844L19.6534 19.8921Z" fill="#ACABAC"/>
<path d="M23.6904 16.0666L23.696 16.0442C23.7343 15.8868 23.6901 15.7889 23.7545 15.6979C23.8536 15.647 24.0556 15.583 24.1438 15.6696L24.1379 15.6792C24.0523 15.8216 24.0979 15.7893 24.1113 15.9281C24.164 16.4742 24.2186 17.4097 24.1459 17.9267L24.1239 17.7998C24.1328 17.7278 24.1164 17.6364 24.1069 17.5628L24.118 17.5248C24.1104 17.4797 24.1083 17.3994 24.1053 17.351C24.1081 17.2558 24.1023 16.8407 24.0662 16.7819L24.0265 16.779C23.9325 16.8282 23.8447 16.9484 23.7815 17.0337C23.7609 16.9022 23.7419 16.7705 23.7244 16.6386C23.726 16.5464 23.7085 16.3882 23.7009 16.2915C23.7015 16.225 23.6942 16.1351 23.6904 16.0666Z" fill="#2E2D2E" fill-opacity="0.01"/>
<path d="M12.1865 6.33789L12.1971 6.37261C11.8496 6.7274 11.5369 7.12695 11.2223 7.50957C11.1957 7.54194 11.1618 7.68641 11.1719 7.73393C11.2376 7.7746 11.2759 7.76906 11.3474 7.73742L11.3696 7.75212L11.3579 7.78057C11.2952 7.79348 11.2328 7.80818 11.171 7.82466C11.1002 7.94162 11.2334 8.1512 11.0971 8.23686C11.0357 8.23789 10.8702 8.24652 10.8227 8.22849L10.818 8.19949C10.9613 8.09129 11.217 8.27513 11.0857 7.82445L10.9682 7.82877C10.7703 8.10424 10.6773 8.38823 10.4136 8.63267C10.3374 8.70328 10.3792 8.9804 10.1773 9.12849C9.97492 9.27689 9.87945 9.59697 9.89899 9.82929C9.89944 9.884 9.90129 10.084 9.86959 10.1289C9.85634 10.1476 9.66235 10.1602 9.60897 10.1387C9.56224 10.1672 9.56672 10.2414 9.55365 10.2922C9.47928 10.581 9.291 10.8499 9.1315 11.1015C9.08919 11.1683 9.13293 11.3527 9.03879 11.4573L9.01807 11.42C9.05188 11.3207 9.07131 11.1435 9.11107 11.0557C9.19281 10.875 9.30961 10.7009 9.40208 10.5198C9.48978 10.348 9.51536 10.1861 9.60705 10.0286C9.80031 9.75921 9.83885 9.74707 9.90267 9.43626C9.93993 9.29097 10.2087 9.03487 10.279 8.87588C10.318 8.78761 10.3414 8.66657 10.3621 8.57188C10.6339 8.35638 10.7209 8.18588 10.8204 7.87169C10.9401 7.79506 10.9618 7.76221 11.1031 7.7307C11.1309 7.60741 11.1547 7.52265 11.1945 7.40245C11.4629 7.21856 11.4969 7.08898 11.6971 6.84724C11.8507 6.66191 12.0009 6.4944 12.1865 6.33789Z" fill="#5F5F60" fill-opacity="0.980392"/>
<path d="M24.6344 20.5117C24.6846 20.6678 24.6962 20.7938 24.7174 20.9554C24.7598 20.9843 24.869 21.0529 24.8946 21.0895C24.6993 21.26 24.7446 21.5437 24.8053 21.7614L24.7984 21.7341L24.8368 21.7658C24.9229 21.572 24.8792 21.5097 24.9027 21.3289C24.912 21.5483 24.947 21.7876 24.8215 21.9767C24.7337 22.1091 24.7185 22.1084 24.6643 22.2654C24.652 22.0958 24.5744 21.9795 24.5801 21.756C24.5887 21.4177 24.5603 21.0725 24.6206 20.7349C24.634 20.6596 24.6342 20.5876 24.6344 20.5117Z" fill="#353435" fill-opacity="0.768627"/>
<path d="M22.9661 11.1606L22.9849 11.2449C22.9899 11.3106 23.0039 11.5441 23.0255 11.5916C23.1904 11.9544 23.2519 12.0143 23.2616 12.4134L23.2631 12.4486C23.2131 12.4507 23.2104 12.4532 23.1645 12.4672C23.0463 12.5772 23.0483 12.7262 23.0255 12.8848L23.0136 12.8849C23.0155 12.769 23.0223 12.6527 22.9998 12.5391L22.9735 12.5224C22.9617 12.596 22.9632 12.8006 22.9616 12.8842C22.9138 12.7372 22.9547 11.3533 22.9661 11.1606Z" fill="#262626" fill-opacity="0.811765"/>
<path d="M6.31573 20.5944C6.34745 20.5149 6.32472 20.4652 6.37823 20.4077L6.40285 20.4261C6.42111 20.5274 6.42164 20.5616 6.42006 20.665C6.46351 20.7174 6.44058 20.7026 6.50618 20.7219C6.60433 20.6666 6.55142 20.5627 6.60264 20.4797C6.60262 20.6542 6.60066 20.8074 6.58345 20.9812C6.56716 21.1456 6.53165 21.3062 6.54185 21.4694C6.49007 21.3297 6.516 21.3629 6.40145 21.2693C6.22795 21.1275 6.27984 20.7866 6.31573 20.5944ZM6.3913 21.0832C6.45514 20.9634 6.47382 20.8027 6.38024 20.6921L6.34326 20.6763C6.32149 20.7651 6.27417 21.0447 6.3913 21.0832Z" fill="#424143" fill-opacity="0.682353"/>
<path d="M6.34326 20.6763L6.38023 20.6921C6.47381 20.8027 6.45514 20.9634 6.39129 21.0832C6.27416 21.0447 6.32149 20.7651 6.34326 20.6763Z" fill="#353435" fill-opacity="0.835294"/>
<path d="M14.8413 5.04661C14.5201 4.48009 15.2997 4.67126 15.6528 4.6755L15.5604 4.69418L15.4541 4.69496L15.2451 4.69642C15.1964 4.75053 15.1923 4.97863 15.2307 5.04802L15.0854 5.06192L14.4121 5.10632L14.2961 5.10316C14.4061 5.07878 14.7151 5.05797 14.8413 5.04661Z" fill="#353435" fill-opacity="0.403922"/>
<path d="M7.87514 14.6694C7.89493 14.86 7.9074 15.4607 7.83396 15.624C7.7662 15.6631 7.70262 15.6533 7.63444 15.6199C7.61303 15.5809 7.61445 15.5947 7.61069 15.5539L7.63455 15.5209C7.68288 15.5457 7.7493 15.5881 7.80008 15.5854C7.80084 15.5763 7.79959 15.4567 7.78606 15.509C7.80618 15.4313 7.83603 15.4253 7.81653 15.3499L7.82889 15.3721L7.78107 15.3492C7.62184 15.4144 7.63095 15.3229 7.57768 15.548C7.55511 15.6435 7.56038 15.6356 7.48853 15.7042L7.51043 15.2958C7.61746 15.193 7.86817 14.8333 7.87514 14.6694Z" fill="#4D4C4D" fill-opacity="0.866667"/>
<path d="M23.7246 16.6387C23.7421 16.7706 23.7611 16.9023 23.7816 17.0337C23.8448 16.9484 23.9326 16.8282 24.0266 16.7791L24.0664 16.7819C24.1024 16.8407 24.1083 17.2559 24.1055 17.351C24.0852 17.2746 24.0963 17.2594 24.0413 17.2197C23.9407 17.2637 23.8475 17.4619 23.8178 17.5625L23.7938 17.5871L23.774 17.5763C23.7362 17.4718 23.7642 17.2964 23.7281 17.1436C23.723 16.9753 23.7218 16.807 23.7246 16.6387Z" fill="#353435" fill-opacity="0.52549"/>
<path d="M7.07739 17.3961C7.09887 16.8139 7.31527 16.7708 7.42975 16.2905C7.44101 16.5208 7.49128 17.0011 7.38352 17.1856C7.29975 17.2429 7.2502 17.2426 7.17966 17.1612L7.15279 17.1693C7.13478 17.2671 7.13284 17.3112 7.07739 17.3961Z" fill="#4D4C4D" fill-opacity="0.862745"/>
<path d="M23.3473 14.2124C23.3538 14.2707 23.3655 14.3545 23.3674 14.4107L23.3699 14.5653C23.3562 14.9023 23.3838 15.3249 23.4128 15.6603L23.411 15.7559C23.4485 15.832 23.4568 15.8395 23.5219 15.8941L23.5541 15.8744C23.5955 15.7603 23.5928 15.4855 23.6003 15.3482L23.6104 15.3082C23.6475 15.3486 23.6593 15.509 23.6752 15.5847C23.6953 15.7512 23.6718 15.917 23.6905 16.067C23.6942 16.1355 23.7016 16.2254 23.7009 16.2919C23.6266 16.0108 23.5653 16.2248 23.4622 16.1028C23.3167 15.9304 23.321 14.4654 23.3473 14.2124Z" fill="#262626" fill-opacity="0.760784"/>
<path d="M23.7415 17.9962C23.7595 18.0189 23.7711 18.0265 23.7931 18.0452C23.8771 18.0242 23.9257 18.0411 24.0061 18.0205C24.0256 17.9433 24.0424 17.8303 24.124 17.7998L24.146 17.9267C24.1484 18.085 24.1557 18.2694 24.1507 18.4254C24.1136 18.3393 24.0874 18.0448 24.0899 17.9472C24.0709 18.0601 24.0763 18.3619 24.0542 18.4325C23.9874 18.3865 23.9627 18.4092 23.9029 18.443C23.718 18.379 23.7462 18.1527 23.7415 17.9962Z" fill="#353435" fill-opacity="0.819608"/>
<path d="M24.2322 18.9677C24.2766 19.0329 24.3065 19.115 24.3593 19.1398C24.3906 18.9876 24.3447 18.8711 24.4469 18.7769L24.492 18.7773C24.5419 18.8498 24.5213 19.0882 24.5471 19.2114C24.5266 19.4017 24.504 19.626 24.5038 19.8177C24.3764 19.4971 24.3127 19.3078 24.2322 18.9677Z" fill="#353435" fill-opacity="0.180392"/>
<path d="M22.9849 11.2451L23.0139 11.2774L23.0297 11.3616L23.0671 11.3862C23.1403 11.37 23.2025 11.3251 23.2659 11.2856C23.2661 11.3449 23.2606 11.6117 23.2785 11.6475C23.2799 11.8134 23.2917 12.2734 23.2616 12.4136C23.2519 12.0145 23.1903 11.9546 23.0254 11.5918C23.0039 11.5444 22.9899 11.3108 22.9849 11.2451Z" fill="#262626" fill-opacity="0.384314"/>
<path d="M23.7281 17.1436C23.7642 17.2964 23.7362 17.4719 23.774 17.5763L23.7938 17.5871L23.8178 17.5625C23.9033 17.5088 23.9195 17.4723 23.9675 17.3867L23.9874 17.3908L23.9947 17.5471L24.0128 17.553L24.0609 17.5009C24.0935 17.5061 24.0952 17.503 24.1181 17.5248L24.107 17.5628C24.001 17.6208 24.003 17.791 23.9872 17.9061C23.8944 17.937 23.8611 17.9664 23.7809 17.945C23.761 17.8985 23.7543 17.8778 23.7411 17.8291C23.7504 17.7439 23.7235 17.2907 23.7281 17.1436Z" fill="#353435" fill-opacity="0.682353"/>
<path d="M15.6736 4.67587C15.8303 4.66483 15.968 4.66062 16.1251 4.6582C15.8119 4.7347 16.0476 4.83244 15.8333 4.93467C15.7806 4.93215 15.7186 4.9213 15.6764 4.94129L15.7001 4.98142C15.7867 4.98922 15.8672 4.97288 15.9251 5.00902L15.923 5.03124C15.7119 5.07655 15.5935 5.06848 15.3757 5.06417L15.5111 5.03575L15.5211 5.01884L15.4694 5.00541L15.5468 5.00059C15.634 4.92888 15.6521 4.78021 15.6736 4.67587Z" fill="#353435" fill-opacity="0.8"/>
<path d="M23.3701 14.5649C23.3796 14.665 23.3781 14.8054 23.4442 14.8778C23.561 14.8614 23.5015 14.8073 23.5991 14.8201C23.6429 14.8835 23.6449 14.9122 23.6598 14.9848C23.6589 15.0271 23.6596 15.12 23.6539 15.1576C23.5894 15.0715 23.6396 14.9529 23.5942 14.922L23.5297 15.0357L23.5291 15.0314C23.4863 15.1612 23.4673 15.4744 23.4697 15.6156L23.4641 15.6661L23.413 15.6599C23.384 15.3246 23.3563 14.9019 23.3701 14.5649Z" fill="#262626" fill-opacity="0.572549"/>
<path d="M13.9289 5.18262C14.2451 5.25708 14.1425 5.21418 14.4246 5.22835C14.3572 5.2661 14.2345 5.34659 14.1671 5.33636L14.1624 5.29572L14.0365 5.27562L14.0044 5.30085C14.0057 5.38201 14.0214 5.40001 13.9799 5.45466C13.8232 5.50927 13.6513 5.44559 13.4778 5.45705C13.6168 5.39337 13.7968 5.26874 13.9289 5.18262Z" fill="#353435" fill-opacity="0.901961"/>
<path d="M23.3485 14.0889L23.3565 14.1057C23.3984 14.1955 23.4061 14.2588 23.423 14.3556C23.4696 14.2187 23.4315 14.1275 23.5718 14.0435L23.6201 14.0518C23.7326 14.2169 23.5818 14.312 23.6682 14.4947C23.5968 14.4682 23.5877 14.4662 23.5115 14.4719C23.4603 14.5151 23.4763 14.4947 23.4567 14.5626L23.4302 14.5276L23.4572 14.5597L23.4307 14.5441L23.4516 14.539L23.4155 14.518C23.4091 14.4749 23.3895 14.4487 23.3675 14.4107C23.3656 14.3544 23.3539 14.2707 23.3474 14.2124L23.3485 14.0889Z" fill="#262626" fill-opacity="0.0941176"/>
<path d="M6.31577 20.5941C6.31318 20.519 6.31412 20.455 6.31635 20.38C6.38791 20.2023 6.55017 20.3966 6.62881 19.9692C6.62358 20.1394 6.61486 20.3095 6.60268 20.4793C6.55146 20.5623 6.60437 20.6662 6.50623 20.7216C6.44062 20.7022 6.46355 20.7171 6.4201 20.6647C6.42168 20.5613 6.42115 20.5271 6.40289 20.4257L6.37827 20.4074C6.32476 20.4649 6.34749 20.5146 6.31577 20.5941Z" fill="#424143" fill-opacity="0.533333"/>
<path d="M23.3674 14.4106C23.3894 14.4487 23.409 14.4749 23.4154 14.518L23.4515 14.539L23.4307 14.544L23.4571 14.5597L23.4301 14.5275L23.4566 14.5626C23.4763 14.4946 23.4603 14.5151 23.5115 14.4719C23.5876 14.4661 23.5968 14.4682 23.6681 14.4946C23.654 14.6707 23.6562 14.808 23.6597 14.9851C23.6448 14.9125 23.6428 14.8838 23.5989 14.8204C23.5014 14.8076 23.5608 14.8617 23.4441 14.8782C23.378 14.8057 23.3795 14.6653 23.3699 14.5652L23.3674 14.4106Z" fill="#262626" fill-opacity="0.4"/>
<path d="M23.0139 11.277C23.1422 11.1627 22.9941 11.0305 23.1639 10.9448C23.2358 10.9609 23.2231 10.9472 23.2643 10.9912C23.295 11.109 23.3092 11.5501 23.2785 11.6471C23.2606 11.6113 23.2661 11.3445 23.2659 11.2853C23.2025 11.3247 23.1403 11.3697 23.0671 11.3858L23.0297 11.3612L23.0139 11.277Z" fill="#262626" fill-opacity="0.0666667"/>
<path d="M17.2065 4.71143C17.3547 4.71146 17.5029 4.71296 17.651 4.71593C17.6119 4.79315 17.5372 4.90823 17.539 4.98399L17.6044 5.05052C17.2954 4.97144 17.3314 4.99323 17.2065 4.71143Z" fill="#353435" fill-opacity="0.133333"/>
<path d="M24.8945 21.0898C24.9032 21.1772 24.9128 21.2415 24.9026 21.3292C24.8791 21.5101 24.9229 21.5723 24.8367 21.7661L24.7983 21.7345L24.8052 21.7617C24.7446 21.544 24.6992 21.2604 24.8945 21.0898Z" fill="#353435" fill-opacity="0.847059"/>
<path d="M23.4697 15.616C23.4673 15.4748 23.4862 15.1616 23.529 15.0318L23.5297 15.036L23.5942 14.9224C23.6396 14.9532 23.5894 15.0718 23.6539 15.1579C23.6805 15.321 23.677 15.4201 23.6753 15.5847C23.6594 15.509 23.6476 15.3485 23.6105 15.3082L23.6004 15.3481C23.5617 15.4543 23.5417 15.5255 23.4697 15.616Z" fill="#262626" fill-opacity="0.611765"/>
<path d="M24.2166 18.8901C24.2716 18.7955 24.3324 18.6939 24.4644 18.7061C24.6022 18.8104 24.5695 19.0555 24.5472 19.2113C24.5214 19.0881 24.5419 18.8497 24.492 18.7772L24.447 18.7767C24.3448 18.8709 24.3907 18.9874 24.3594 19.1397C24.3065 19.1148 24.2766 19.0328 24.2322 18.9676L24.2166 18.8901Z" fill="#353435" fill-opacity="0.0235294"/>
<path d="M15.4539 4.69512L15.5602 4.69434C15.5586 4.84273 15.4678 4.83915 15.4144 4.97447C15.4388 4.99657 15.4371 4.99884 15.4693 5.00524L15.521 5.01867L15.511 5.03559L15.3756 5.06401C15.2772 5.07062 15.1835 5.06561 15.0852 5.06208L15.2305 5.04818C15.2878 4.87787 15.2797 4.88894 15.4359 4.79973C15.4519 4.75317 15.4512 4.74472 15.4539 4.69512Z" fill="#353435" fill-opacity="0.682353"/>
<path d="M23.9873 17.9063C24.0031 17.7912 24.001 17.621 24.1071 17.563C24.1166 17.6366 24.133 17.728 24.1241 17.8C24.0425 17.8306 24.0257 17.9435 24.0062 18.0208C23.9258 18.0413 23.8772 18.0244 23.7932 18.0454C23.7712 18.0267 23.7596 18.0191 23.7415 17.9964L23.7412 17.8293C23.7544 17.878 23.7611 17.8986 23.7809 17.9451C23.8612 17.9665 23.8945 17.9372 23.9873 17.9063Z" fill="#353435" fill-opacity="0.780392"/>
<path d="M17.5914 26.4687C17.6678 26.3769 17.7011 26.3388 17.8098 26.2876C17.7704 26.3477 17.7563 26.3445 17.7687 26.3998C17.8724 26.4301 17.9432 26.4019 18.0008 26.4462L18.0036 26.4907C18.0102 26.4882 17.3135 26.5545 17.2832 26.5541L17.5914 26.4687Z" fill="#171718" fill-opacity="0.227451"/>
<path d="M18.2666 26.1493C18.4166 26.1178 18.4773 25.9654 18.7229 25.853L18.6301 25.9765L18.6406 26.0088C18.696 26.0144 18.7176 26.0146 18.7733 26.0112L18.7983 26.0427C18.7477 26.1133 18.3655 26.1606 18.2666 26.1493Z" fill="#171718" fill-opacity="0.117647"/>
<path d="M13.929 5.18258C14.0153 5.09066 14.1736 5.10603 14.2962 5.10303L14.4122 5.10619C14.4182 5.14406 14.4293 5.19232 14.4247 5.22831C14.1426 5.21415 14.2452 5.25704 13.929 5.18258Z" fill="#353435" fill-opacity="0.882353"/>
<path d="M23.4697 15.616C23.5417 15.5255 23.5617 15.4543 23.6004 15.3481C23.593 15.4855 23.5957 15.7602 23.5542 15.8744L23.522 15.8941C23.457 15.8395 23.4486 15.832 23.4111 15.7558L23.413 15.6603L23.464 15.6664L23.4697 15.616Z" fill="#262626" fill-opacity="0.705882"/>
<path d="M23.8179 17.5625C23.8476 17.462 23.9408 17.2637 24.0413 17.2197C24.0964 17.2595 24.0852 17.2747 24.1056 17.3511C24.1085 17.3995 24.1106 17.4798 24.1183 17.5249C24.0953 17.5031 24.0937 17.5062 24.061 17.501L24.0129 17.5531L23.9948 17.5472L23.9875 17.3908L23.9676 17.3868C23.9196 17.4724 23.9034 17.5089 23.8179 17.5625Z" fill="#353435" fill-opacity="0.658824"/>
<path d="M15.2306 5.04789C15.1923 4.9785 15.1964 4.75039 15.245 4.69629L15.454 4.69482C15.4513 4.74443 15.452 4.75288 15.436 4.79944C15.2798 4.88864 15.2879 4.87758 15.2306 5.04789Z" fill="#353435" fill-opacity="0.647059"/>
<path d="M15.6527 4.67578L15.6737 4.67583C15.6521 4.78017 15.6341 4.92884 15.5468 5.00055L15.4694 5.00537C15.4372 4.99896 15.439 4.9967 15.4146 4.9746C15.4679 4.83928 15.5588 4.84285 15.5604 4.69446L15.6527 4.67578Z" fill="#353435" fill-opacity="0.764706"/>
<path d="M15.6814 27.1382C15.7729 27.1506 15.9376 27.1759 15.9773 27.2576L15.95 27.3024C15.8506 27.2934 15.7232 27.3156 15.6472 27.2728C15.6279 27.2056 15.6409 27.2144 15.6814 27.1382Z" fill="#171718" fill-opacity="0.32549"/>
<path d="M18.5942 5.59552C18.6717 5.5146 18.6393 5.52771 18.7418 5.49658C18.8165 5.51257 18.7933 5.49673 18.8318 5.55244C18.823 5.63758 18.8083 5.64944 18.7369 5.71948C18.6913 5.69638 18.6246 5.63654 18.5942 5.59552Z" fill="#171718" fill-opacity="0.0313725"/>
<path d="M14.8894 26.7139C14.9519 26.7539 15.0692 26.8282 15.1232 26.8753C15.0179 26.8735 14.8831 26.9211 14.8245 26.8898L14.8248 26.8078C14.8608 26.774 14.8614 26.7704 14.8837 26.7254L14.8894 26.7139Z" fill="#171718" fill-opacity="0.0862745"/>
<path d="M13.2361 25.9468L13.4033 26.0234L13.3505 26.0392C13.3121 26.0977 13.2542 26.1446 13.1806 26.1208C13.172 26.035 13.1895 26.0172 13.2361 25.9468Z" fill="#171718" fill-opacity="0.0470588"/>
</svg>
