<svg width="32" height="32" viewBox="0 0 32 32" fill="none" xmlns="http://www.w3.org/2000/svg">
<rect width="32" height="32" rx="16" fill="url(#paint0_linear_9142_142651)"/>
<path d="M18.2588 20.2661C18.375 20.1886 18.5357 20.2383 18.5833 20.3665L20.3885 25.2226C20.4466 25.3788 20.3003 25.5342 20.1335 25.4934L13.4873 23.8695C13.3085 23.8258 13.2661 23.5995 13.4177 23.4983L18.2588 20.2661Z" fill="white"/>
<path d="M19.4247 19.1942C19.4164 19.1718 19.4121 19.1482 19.4121 19.1243V14.2302C19.4121 14.0918 19.2741 13.9923 19.1364 14.0315L13.4413 15.6547C13.3037 15.6939 13.1656 15.5944 13.1656 15.456V12.293C13.1656 12.2284 13.1969 12.1674 13.2502 12.1282L20.6717 6.67382C20.7749 6.59802 20.9236 6.62696 20.9882 6.73541L25.4714 14.2622C25.5032 14.3155 25.5088 14.3797 25.4866 14.4374L21.7121 24.267C21.6425 24.4484 21.376 24.447 21.3084 24.265L19.4247 19.1942Z" fill="white"/>
<path d="M11.2653 7.09803C11.3011 7.06418 11.3481 7.04349 11.3981 7.03956L18.2479 6.50077C18.4619 6.48394 18.5663 6.74683 18.3955 6.87218L12.557 11.1557C12.503 11.1953 12.4327 11.208 12.3675 11.1898L8.52284 10.121C8.36471 10.0771 8.31445 9.88496 8.43204 9.77391L11.2653 7.09803Z" fill="white"/>
<path d="M7.45265 11.1965C7.46903 11.0702 7.59863 10.9878 7.72549 11.0232L11.8001 12.1594C11.892 12.185 11.9552 12.2661 11.9552 12.3584V16.9586C11.9552 17.0971 12.0934 17.1966 12.2311 17.1572L17.8867 15.5413C18.0243 15.502 18.1625 15.6015 18.1625 15.7399V18.6619C18.1625 18.7297 18.1281 18.7933 18.0703 18.832L11.7268 23.0844C11.6441 23.1399 11.5325 23.1324 11.4585 23.0665L6.5691 18.713C6.51818 18.6676 6.49306 18.6014 6.50166 18.5351L7.45265 11.1965Z" fill="white"/>
<defs>
<linearGradient id="paint0_linear_9142_142651" x1="25.3333" y1="6" x2="-4.65541e-06" y2="32" gradientUnits="userSpaceOnUse">
<stop offset="0.015625" stop-color="#3294FF"/>
<stop offset="1" stop-color="#005BBE"/>
</linearGradient>
</defs>
</svg>
