<svg width="32" height="32" viewBox="0 0 32 32" fill="none" xmlns="http://www.w3.org/2000/svg">
<path fill-rule="evenodd" clip-rule="evenodd" d="M16 0C24.8372 0 32 7.16282 32 16C32 24.8372 24.8372 32 16 32C7.16282 32 0 24.8372 0 16C0 7.16282 7.16282 0 16 0Z" fill="#0098EB"/>
<path d="M22.3023 7.68652H9.69625C7.37842 7.68652 5.90937 10.1868 7.07541 12.2079L14.8554 25.6928C15.3631 26.5733 16.6354 26.5733 17.143 25.6928L24.9247 12.2079C26.0891 10.1899 24.6186 7.68652 22.3023 7.68652ZM14.8491 21.649L13.1547 18.3697L9.06643 11.0577C8.79672 10.5897 9.12987 9.99005 9.69467 9.99005H14.8475V21.6505L14.8491 21.649ZM22.9289 11.0562L18.8422 18.3714L17.1478 21.649V9.98847H22.3007C22.8655 9.98847 23.1985 10.5881 22.9289 11.0562Z" fill="white"/>
</svg>
