<svg width="309" height="75" viewBox="0 0 309 75" fill="none" xmlns="http://www.w3.org/2000/svg">
<path d="M44.4481 20.3156V28.3733H33.8002V55.5889H25.6479V28.3733H15V20.3156H44.4481Z" fill="white"/>
<path d="M52.7314 27.7156C60.6342 27.7156 67.0395 34.0467 67.0395 41.8578C67.0395 49.6689 60.6342 56 52.7314 56C44.8287 56 38.4233 49.6689 38.4233 41.8578C38.4233 34.0467 44.8287 27.7156 52.7314 27.7156ZM52.7314 47.9422C56.1421 47.9422 58.8872 45.2289 58.8872 41.8578C58.8872 38.4867 56.1421 35.7733 52.7314 35.7733C49.3208 35.7733 46.5756 38.4867 46.5756 41.8578C46.5756 45.2289 49.3208 47.9422 52.7314 47.9422Z" fill="white"/>
<path d="M81.2764 27.7978C89.5119 27.7978 94.7526 34.2933 94.7526 42.1044V55.5889H86.6003V42.1044C86.6003 37.5 83.772 35.7733 81.2764 35.7733C78.864 35.7733 76.0356 37.5 76.0356 42.1044V55.5889H67.8833V42.1044C67.8833 34.3756 73.1241 27.7978 81.2764 27.7978Z" fill="white"/>
<path d="M112.525 28.3733C110.945 28.3733 109.697 29.6067 109.697 31.1689C109.697 32.6489 110.695 33.8 112.109 33.9644H127.665V42.0222H112.109C110.695 42.1867 109.697 43.3378 109.697 44.7356V55.5889H101.544V44.7356C101.544 42.1867 102.46 39.8022 103.957 37.9933C102.46 36.1022 101.544 33.8 101.544 31.1689C101.544 25.2489 106.452 20.3978 112.525 20.3978H133.821V28.3733H112.525Z" fill="white"/>
<path d="M143.825 27.7156C151.728 27.7156 158.133 34.0467 158.133 41.8578C158.133 49.6689 151.728 56 143.825 56C135.922 56 129.517 49.6689 129.517 41.8578C129.517 34.0467 135.922 27.7156 143.825 27.7156ZM143.825 47.9422C147.236 47.9422 149.981 45.2289 149.981 41.8578C149.981 38.4867 147.236 35.7733 143.825 35.7733C140.414 35.7733 137.669 38.4867 137.669 41.8578C137.669 45.2289 140.414 47.9422 143.825 47.9422Z" fill="white"/>
<path d="M173.034 27.7978C175.446 27.7978 177.859 28.3733 180.022 29.4422L176.278 36.5956C175.28 36.1022 174.198 35.7733 173.034 35.7733C169.207 35.7733 166.129 38.8978 166.129 42.68V55.5889H157.977V27.7156H166.129V29.5244C168.209 28.3733 170.538 27.7978 173.034 27.7978Z" fill="white"/>
<path d="M190.022 27.7156H204.33V35.8556C204.33 41.7756 199.422 46.6267 193.433 46.6267H186.112C187.194 47.4489 188.525 47.9422 190.022 47.9422H197.176V56H190.022C182.036 56 175.714 49.7511 175.714 41.8578C175.714 34.0467 182.119 27.7156 190.022 27.7156ZM196.178 35.7733H190.022C188.275 35.7733 186.778 36.4311 185.613 37.5822C185.28 37.8289 185.031 38.24 184.781 38.5689H193.349C194.93 38.5689 196.178 37.3356 196.178 35.7733Z" fill="white"/>
<path d="M222.908 45.2289L229.646 49.7511C226.901 53.6156 222.492 56 217.751 56C209.848 56 203.443 49.6689 203.443 41.8578C203.443 34.0467 209.848 27.7156 217.751 27.7156C222.492 27.7156 226.901 30.0178 229.563 33.9644L222.908 38.4044C221.744 36.76 219.83 35.7733 217.751 35.7733C214.34 35.7733 211.595 38.4867 211.595 41.8578C211.595 45.2289 214.34 47.9422 217.751 47.9422C219.83 47.9422 221.744 46.9556 222.908 45.2289Z" fill="white"/>
<path d="M258.163 41.8578V55.5889L243.855 56L250.094 54.6022C248.097 55.5067 246.018 56 243.855 56C235.952 56 229.547 49.6689 229.547 41.8578C229.547 34.0467 235.952 27.7156 243.855 27.7156C251.758 27.7156 258.163 34.0467 258.163 41.8578ZM243.855 47.9422C247.266 47.9422 250.011 45.3111 250.011 41.8578C250.011 38.4867 247.266 35.7733 243.855 35.7733C240.444 35.7733 237.699 38.4867 237.699 41.8578C237.699 45.2289 240.444 47.9422 243.855 47.9422Z" fill="white"/>
<path d="M263.747 41.4467C263.747 33.6356 270.235 27.3044 278.055 27.3044V35.3622C274.644 35.3622 271.899 37.9933 271.899 41.4467C271.899 49.2578 265.41 55.5889 257.591 55.5889V47.5311C261.002 47.5311 263.747 44.9 263.747 41.4467Z" fill="white"/>
<path d="M287.763 35.3622V43.9133C287.763 45.3111 288.012 45.64 288.595 46.7911C289.51 48.2711 292.837 48.0244 294.335 48.0244C294.418 48.0244 294.418 48.0244 294.418 48.0244L294.75 47.9422V56H293.752C285.683 56 279.694 52.3822 279.694 43.9133V35.3622H278.055V27.3044H279.694V19H287.763V27.3044H295V35.5L287.763 35.3622Z" fill="white"/>
</svg>
